<?xml version="1.0" encoding="UTF-8"?>
<svg id="Capa_2" data-name="Capa 2" xmlns="http://www.w3.org/2000/svg" viewBox="0 0 800 800">
  <defs>
    <style>
      .cls-1 {
        fill: #fff;
      }
    </style>
  </defs>
  <g id="Capa_1-2" data-name="Capa 1">
    <g>
      <path d="M0,398H18.43v5H0v-5Z"/>
      <path d="M402,0c.18,5.42,.57,10.84,.38,16.25-.04,1.15-2.23,2.22-4.38,4.2V0c1.33,0,2.67,0,4,0Z"/>
      <path d="M398,800c-.18-5.46-.46-10.92-.42-16.38,0-.78,1.57-2.15,2.42-2.15,.84,0,2.41,1.37,2.42,2.15,.04,5.46-.24,10.92-.42,16.38h-4Z"/>
      <path d="M800,403h-17.96c-1.3-3.6-1.3-5.83,3.16-5.59,4.93,.27,9.86,.4,14.8,.59v5Z"/>
      <path d="M378,800v-18.64c2.5-.19,3.9-.29,5.93-.45-.33,6.64-.63,12.87-.93,19.09h-5Z"/>
      <path d="M800,422h-18.82v-5h18.82v5Z"/>
      <path d="M800,383c-6.09,.37-12.18,.75-18.68,1.14-.13-1.83-.23-3.2-.38-5.2,6.6-.33,12.83-.63,19.05-.94v5Z"/>
      <path d="M417,800v-18.66c2.71-1.08,4.6-.42,4.69,3.31,.12,5.12,.21,10.23,.31,15.35h-5Z"/>
      <path d="M0,417H18.79c.06,1.05,.14,2.58,.24,4.48-5.5,.3-10.58,.73-15.66,.75-1.12,0-2.24-1.45-3.36-2.23,0-1,0-2,0-3Z"/>
      <path d="M0,380c1.72-.62,3.44-1.76,5.16-1.77,4.42-.02,8.83,.46,13.6,.77,.08,1.65,.14,3.03,.24,5.13-6.62-.39-12.81-.76-19.01-1.13,0-1,0-2,0-3Z"/>
      <path d="M0,408c6.01-.44,12.01-.89,18.34-1.35,.2,2.15,.32,3.51,.49,5.35H0C0,410.67,0,409.33,0,408Z"/>
      <path d="M412,0c.01,5.58,.21,11.18-.13,16.74-.06,1.01-2.33,1.89-3.58,2.83-.43-.3-.86-.6-1.29-.89V0h5Z"/>
      <path d="M800,412h-18.4v-5.35c6.33,.46,12.36,.91,18.4,1.35v4Z"/>
      <path d="M407,800v-18.09c3.47-1.28,5.2-.62,5.15,2.9-.07,5.06-.1,10.13-.15,15.19h-5Z"/>
      <path d="M393,0V18.7c-1.54,.11-2.91,.21-5,.36V0h5Z"/>
      <path d="M388,800v-18.41h5v18.41h-5Z"/>
      <path d="M800,393c-4.78,.13-9.57,.15-14.34,.41-3.73,.21-5.24-1.05-3.76-5.41h18.1v5Z"/>
      <path d="M0,388H18.4c.97,4.03-.09,5.67-3.99,5.42-4.79-.3-9.61-.3-14.41-.42v-5Z"/>
      <path d="M769.1,400.55c.32,203.67-166.85,371.13-373.82,368.62-199.88-2.43-364.84-165.38-364.38-370.17C31.36,194.15,200.33,25.59,410.56,31.27c197.9,5.34,358.98,167.86,358.54,369.29Zm-371.9,38.32c2.84,0,5.3,.1,7.75-.02,18.76-.85,37.65-.63,56.24-2.9,24.98-3.05,44.89-15.11,56.69-38.38,6.93-13.67,9.29-28.15,8.45-43.42-1.34-24.31-11.7-43.45-31.87-56.99-18.09-12.14-38.71-15.68-59.95-15.81-42.5-.26-85-.08-127.5-.08-1.94,0-3.87,0-5.75,0v41.87h30.85v163.99h-30.92v41.57c2.35,0,4.32,0,6.29,0,22.5,0,45,0,67.5,0,17.17,0,34.33-.12,51.5,.09,4.21,.05,5.42-1.31,5.32-5.41-.26-9.99-.07-20-.09-30,0-1.96-.17-3.91-.29-6.51h-34.21v-48.01ZM170.57,177.9c-123.91,119.61-128.81,330.49-.3,456.52,13.38-13.39,26.76-26.77,40.32-40.33-50.39-51.98-77.2-114.8-77.22-187.82-.03-73.17,26.88-136.12,77.28-188.08-13.6-13.67-26.84-26.98-40.08-40.29Zm416.85,416.17c13.56,13.61,26.91,27.01,40.25,40.41,131.17-129.4,120.75-341.02-1.08-457.29-13.47,13.23-26.94,26.47-40.42,39.71,107.73,107.65,100.71,278.04,1.24,377.17ZM327.68,150.17c-1.69-7.68-3.28-14.9-4.85-22.01q5.98-2.43,10.01,1.16c5.09,4.54,10.11,9.18,15.31,13.59,1.08,.92,2.94,1.62,4.28,1.42,4.19-.65,8.3-1.78,13.53-2.98-7.52-6.84-14.32-13.02-21.27-19.34,.91-.78,1.39-1.21,1.89-1.61,8.01-6.37,10.26-14.68,6.63-24.5-3.33-9.01-10.42-13.97-20.78-12.55-10.94,1.5-21.68,4.5-33.15,6.98,4.98,21.43,9.79,42.15,14.66,63.11,5.07-1.2,9.21-2.19,13.75-3.27Zm11.36,508.6c-18.32-.17-32.93,14.01-33.08,32.1-.15,18.28,14.14,32.99,32.15,33.1,18.33,.11,32.94-14.1,33.07-32.17,.13-18.4-13.93-32.86-32.14-33.02Zm-65.68,46.73c9.89-18.89,19.51-37.24,29.28-55.9-4.31-2.25-8.06-4.21-12.05-6.29-3.72,6.92-7.16,13.3-10.73,19.94-8.76-4.62-17.08-9.01-25.56-13.48,3.61-7.02,6.93-13.48,10.44-20.3-4.25-2.17-8.01-4.08-12.06-6.15-9.9,18.88-19.53,37.24-29.36,55.99,4.22,2.19,7.98,4.14,12.04,6.24,4.32-8.12,8.41-15.83,12.58-23.68,8.81,4.66,17.1,9.04,25.58,13.53-4.27,8.28-8.2,15.89-12.26,23.75,4.21,2.21,7.86,4.13,12.09,6.35ZM419.71,114.9v-12.6h-28.81v-14.61h32.75v-11.82h-46.9v64.37h49.17v-11.91h-35.89c0-3.07,.25-5.41-.05-7.68-.61-4.64,1.21-6.06,5.81-5.85,7.78,.36,15.59,.1,23.93,.1Zm124.51,15.41c4.14,1.94,8.1,3.8,12.16,5.7,3.44-7.43,3.02-14.05-1.58-19.86-6.9-8.71-16.1-13.36-27.32-12.95-7.61,.28-13.21,4.14-16.19,11.34-2.92,7.06-.69,13.12,4.27,18.22,3.7,3.8,7.97,7.05,11.89,10.64,1.95,1.79,4.28,3.51,5.39,5.77,1.01,2.08,1.57,5.4,.57,7.17-1.03,1.82-4.18,3.34-6.44,3.41-10.53,.3-17.19-7.65-16.14-19.07-3.73-1.74-7.56-3.54-11.34-5.31-4.54,8.24-3.34,16.94,3,23.88,5.69,6.23,12.85,10.06,21.03,11.67,8.26,1.63,15.97,.52,21.5-6.79,6.74-8.92,4.93-18.73-4.88-27.14-4.55-3.9-9.3-7.6-13.47-11.86-1.41-1.43-2.43-4.87-1.66-6.41,.97-1.94,3.87-3.9,6.07-4.07,8.43-.64,14.64,6.74,13.15,15.65Zm-106.59-10c-2.55,10.05,1.19,18.51,10.09,23.84,8.03,4.81,16.8,6.36,25.94,5.03,8.36-1.21,13.81-6.22,16.09-14.4,2.02-7.25-.7-14.03-7.65-19.05-2.14-1.55-4.59-2.68-6.9-3.97-4.64-2.6-9.45-4.93-13.89-7.85-3.93-2.59-3.34-7.88,.78-10.18,6.28-3.5,16.74,1.66,17.95,8.73,.21,1.24,1.07,3.06,2.02,3.35,3.59,1.1,7.34,1.67,10.98,2.43,2.27-8.15-.11-15.17-7.01-20.08-7.63-5.43-16.25-7.56-25.55-6.11-8.06,1.26-14.01,6.85-15.6,14.22-1.6,7.45,1.14,13.63,8.61,18.43,3.76,2.42,7.88,4.3,11.77,6.54,2.87,1.65,5.92,3.18,8.37,5.34,3.5,3.08,3.06,7.79-.49,10.29-6.73,4.75-21.46-.59-22.34-8.72-.53-4.93-2.64-6.05-6.64-6.49-2.11-.23-4.18-.84-6.55-1.34Zm55.34,555.83c-9.63,2.68-18.42,5.12-27.66,7.69-1.23-4.47-2.41-8.73-3.71-13.44,10.58-3.05,20.72-5.97,31.19-8.98-.87-3.06-1.28-5.73-2.43-8.05-.57-1.14-2.73-2.53-3.76-2.25-13.62,3.64-27.16,7.56-41.34,11.58,5.73,20.36,11.38,40.41,17.16,60.94,16-4.52,31.41-8.86,47.28-13.34-1.18-4.1-2.16-7.52-3.23-11.22-11.69,3.23-22.82,6.29-34.26,9.45-1.23-4.56-2.29-8.48-3.41-12.66,9.44-2.72,18.32-5.27,27.53-7.92-1.17-4.1-2.2-7.7-3.37-11.8ZM272.1,172.9c-1.95-3.95-3.56-7.23-5.18-10.5-1.61-3.25-3.24-6.49-5.06-10.13,2.48-1.26,4.7-2.32,6.86-3.49,3.94-2.14,8.14-3.95,11.69-6.62,8.36-6.28,10.14-15.91,5.2-25.41-4.81-9.24-13.87-13.92-23.36-10.3-10.79,4.12-21.01,9.76-31.89,14.94,9.82,19.63,19.31,38.61,28.96,57.91,4.39-2.2,8.36-4.18,12.78-6.39Zm127.39,505.33c.58,17.14,1.15,33.84,1.72,50.52h13.08v-51.89h19.01c0-2.58-.18-4.56,.04-6.5,.48-4.23-1.35-5.62-5.44-5.31-5.96,.45-11.95,.58-17.93,.8-10.1,.37-20.2,.69-30.7,1.04,.23,4.12,.43,7.65,.63,11.33h19.58Zm118.23-41.57c-4.26,2.48-7.92,4.61-11.84,6.89,10.33,18.45,20.39,36.42,30.7,54.84,13.53-7.57,26.78-14.98,40.2-22.49-2.13-3.77-3.91-6.91-5.78-10.21-9.56,5.3-18.67,10.35-28.19,15.63-8.41-14.96-16.61-29.56-25.1-44.66Zm-116.69-463.84c-3.7,3.11-3.76,23.15,0,26.56v-26.56Zm.64,441.75c0-3.48,.09-6.96-.07-10.44-.03-.75-.92-1.46-1.42-2.19-.6,.61-1.72,1.21-1.73,1.84-.13,7.12-.13,14.25-.01,21.37,.01,.66,1.07,1.31,1.64,1.96,.53-.7,1.48-1.38,1.52-2.1,.16-3.47,.07-6.96,.08-10.43Zm199.34-215.07c4.82,3.3,23.96,2.85,25.91,0h-25.91Zm-1.06-10.53c4.39,3.44,23.09,2.54,26.57-1.29-8.42,.41-16.84,.82-26.57,1.29Zm-401.24,2.7c0-.94,0-1.88,.01-2.82-8.4-.38-16.8-.75-25.2-1.13-.04,.85-.09,1.7-.13,2.55,8.44,.47,16.88,.93,25.32,1.4Zm-26.14,7.77c4.01,3.12,22.63,3.03,25.96,0h-25.96Zm353.83-155.46c4.49,.21,17.64-15.4,17.41-20.94-6.12,7.36-11.48,13.81-17.41,20.94Zm-221.56,334.21c-5.28,6.36-8.99,13.91-13.26,21.82,3.68-.38,8.19-7.51,13.26-21.82Zm41.37-398.39c-2.74,4.36,2.23,22.95,6.45,25.35-2.3-9.05-4.38-17.2-6.45-25.35Zm93.54,23.11c.39-.15,.78-.31,1.18-.46,1.55-8.19,3.11-16.38,4.66-24.58l-2.44-.51c-1.61,7.67-3.28,15.32-4.76,23.02-.14,.73,.88,1.68,1.36,2.53Zm-72.79,421.67c2.37-8.22,4.26-16.45,3.49-24.97-2.96,8.12-4.29,16.44-3.49,24.97Zm-7.65-421.54c3.2-2.92-.42-22.79-4.99-26.2,1.75,9.19,3.3,17.33,4.99,26.2Zm222.42,109.8c.19,.43,.38,.87,.57,1.3,4.95,.41,22.32-8.65,22.4-12.35-7.84,3.77-15.41,7.41-22.97,11.05Zm-376.42,203.78c7.97-1.59,21.03-10.36,21.6-14.12-7.82,4.47-15.29,8.45-21.6,14.12Zm395.57-10.74c-7.41-3.96-14.81-7.92-22.97-12.29,1.05,4.43,18.22,14.02,22.97,12.29ZM204.1,352.33c.22-.81,.43-1.62,.65-2.43-8.16-2.07-16.32-4.13-24.48-6.2-.21,.8-.43,1.6-.64,2.4,8.01,2.63,16.21,4.53,24.47,6.23Zm340.79,222.53c-7.83-11.49-14.42-18.51-17.3-18.52,2.18,5.93,14.21,19.18,17.3,18.52Zm-94.53,20.51c-2.81,4.43,2.3,22.98,6.32,25.02-2.23-8.82-4.28-16.92-6.32-25.02Zm3.81-416.73c-2.37,9.33-4.44,17.49-6.81,26.8,4.46-3.06,9.22-21.86,6.81-26.8Zm-65.42,20.18c.49-.03,.99-.06,1.48-.1,2.06-3.58,.71-23.04-2.67-26.08,.42,9.32,.81,17.75,1.19,26.18Zm221.13,114.91l-.63-1.69c-7.82,3.21-15.64,6.43-23.98,9.86,3.28,2.09,20.21-4.09,24.61-8.16Zm-10.37,55.4c.08,.91,.15,1.82,.23,2.72,8.31-1.2,16.62-2.41,24.93-3.61l-.35-2.67c-8.27,1.19-16.54,2.37-24.81,3.56Zm-245.07,253.16c.88,.2,1.76,.4,2.63,.61,1.65-8.23,3.3-16.45,4.95-24.68l-2.64-.53c-1.65,8.2-3.29,16.4-4.94,24.61Zm151.3-21.48l2.13-.85c-2.55-7.49-7.23-14.03-10.8-21.06-.31-.6-1.59-.71-2.42-1.04-.23,.31-.47,.61-.7,.92,3.93,7.34,7.86,14.69,11.8,22.03ZM239.16,239.7c-.21,.34-.42,.69-.64,1.03,5.63,5.66,11.25,11.34,16.95,16.93,.38,.37,1.41,.06,2.14,.07-.07-.71,.14-1.7-.25-2.1-5.21-5.31-10.48-10.56-15.82-15.73-.44-.43-1.57-.15-2.38-.2Zm191.83,359.69c-.9,.13-1.8,.26-2.7,.38,1.24,8.34,2.48,16.68,3.72,25.02l2.56-.36c-1.19-8.35-2.39-16.69-3.58-25.04Zm77.43-398.76c-3.86-.07-13.64,16.67-12.25,22.45,3.97-7.27,7.93-14.54,12.25-22.45Zm-214.23-1.23c-.53,.33-1.05,.67-1.58,1,1.22,6.73,10.15,21.52,13.77,21.53-4.19-7.74-8.19-15.13-12.19-22.53Zm-55.3,80.34c-6.51-7.08-18.8-15.11-21.54-14.21,4.23,5.32,18.17,14.81,21.54,14.21Zm-61.22,75.69c-.14,.59-.28,1.19-.42,1.78,8.2,1.65,16.41,3.31,25.29,5.1-1.9-3.59-18.8-7.7-24.88-6.88Zm-2.62,76.68c3.45,3.4,23.61,.41,25.5-3.75-8.62,1.27-16.78,2.47-25.5,3.75Zm450.19-.06c-9.08-1.27-17.28-2.41-26.54-3.71,3.64,4.31,22.96,6.86,26.54,3.71Zm-112.94,134.23c-.38,4.72,9.86,20.46,14.33,22.16-3.96-7.49-8.52-14.59-14.33-22.16Zm-289.51-69.93c-.25-.45-.5-.9-.74-1.35-5.62,.29-21.49,9.63-21.64,13.47,7.69-4.17,15.04-8.15,22.38-12.13ZM475.44,185.21c-3.16,8.95-5.95,16.84-8.73,24.73,4.62-1.89,10.95-20.25,8.73-24.73Zm-83.98,416.14c-.85-.03-1.69-.06-2.54-.09v25.25c.43,.03,.86,.05,1.29,.08,.42-8.42,.83-16.83,1.25-25.25Zm65.86-394.45c4.7-2.65,9.93-21.12,7.46-24.97-2.64,8.84-5.05,16.9-7.46,24.97Zm28.02,10.59c.73,.33,1.46,.67,2.19,1,3.6-7.62,7.2-15.23,10.79-22.85-.7-.34-1.41-.69-2.11-1.03-4.3,7.29-7.89,14.93-10.87,22.88Zm119.15,280.92c-1.31-4.94-19.55-13.11-23.17-10.99,8.02,3.8,15.59,7.39,23.17,10.99Zm-15.59,27.45c-3.38-4.7-18.37-14.06-21.4-13.37,3.31,4.57,18.48,14.05,21.4,13.37Zm-277.42,84.14c4.65-1.55,12.57-20.2,10.63-25.07-3.66,8.64-6.94,16.38-10.63,25.07Zm-121.13-296.53c7.42,4.34,14.95,8.23,23.45,9.45-7.32-4.52-15.03-8.02-23.45-9.45Zm431.89,132.29c.18-.91,.36-1.83,.54-2.74-8.21-1.6-16.42-3.2-24.63-4.81-.17,.87-.34,1.73-.51,2.6,8.2,1.65,16.4,3.3,24.6,4.95Zm-12.98,42.46c.2-.54,.4-1.07,.61-1.61-4.35-4.13-21.31-10.36-24.54-8.2,8.31,3.41,16.13,6.61,23.94,9.81Zm-9.28-195.88c-10.18,3.52-21.6,10.63-21.7,13.39,7.27-1.89,21.09-10.17,21.7-13.39Zm-366.15,220.51c-4.22-1.2-20.04,8.79-22.27,13.87,7.57-3.72,14.41-8.65,22.27-13.87Zm-11-208.97c-7.44-3.97-14.87-7.93-22.86-12.19,.71,4.33,18.47,14.13,22.86,12.19Zm399.89,53.35c-.12-.87-.24-1.73-.36-2.6-7.85,1.54-15.7,3.04-23.53,4.69-.46,.1-.65,1.43-1.32,3.01,8.99-1.82,17.1-3.46,25.21-5.1Zm-417.85,93.24c-.21-.8-.43-1.59-.64-2.39-8.3,1.63-16.58,3.33-24.53,6.24,.2,.76,.4,1.52,.61,2.28,8.19-2.05,16.37-4.09,24.56-6.14Zm379.35,84.53c-7.9-5.87-14.65-10.89-21.95-16.31,.11,4.43,16.36,16.78,21.95,16.31Zm-345.83,25.01c1.46,.77,1.93,1.12,2,1.05,5.74-5.45,11.46-10.91,17.1-16.47,.3-.3-.14-1.35-.24-2.05-.71,.15-1.64,.07-2.09,.5-3.12,2.97-6.16,6.03-9.18,9.1-2.47,2.5-4.88,5.06-7.59,7.87Zm322.67-.04c-5.49-6.49-11.45-12.46-17.74-18.02,5.91,6.01,11.83,12.01,17.74,18.02Zm-74.3,49.75c-.64-8.4-7.38-22.4-11.12-23.3,3.77,8.25,6.13,16.42,11.12,23.3Zm33.43-47.75c-.4,.29-.79,.57-1.19,.86,5.03,6.79,10.06,13.58,15.79,21.3,.68-4.78-10.7-20.54-14.61-22.16Zm-334.34-86.66c4.8,2.21,22.94-4.62,24.51-8.81-8.67,3.12-16.59,5.96-24.51,8.81Zm222.61,125.56c.54,8.98,1.04,17.4,1.55,25.83l1.45-.09c1.85-5.98,.33-23.73-3-25.74Zm-206.09-160.07c-.12-.51-.23-1.03-.35-1.54-5.17-1.24-22.71,2.84-24.93,6.62,8.92-1.79,17.1-3.44,25.28-5.09Zm380.73-174.63c-4.71-1.26-20.75,10.95-20.79,15.42,7.27-5.4,14.03-10.41,20.79-15.42Zm13.22,249.95c-8.12-4.86-15.35-9.19-22.58-13.52,.82,4.76,17.75,14.78,22.58,13.52Zm-155.68,80.78c-3.18,3.96,.85,23.75,5.04,25.97-1.69-8.72-3.27-16.84-5.04-25.97Zm79.92-356.88c5.71-7.69,10.76-14.47,16.29-21.92-4.83,.38-16.88,16.46-16.29,21.92Zm33.64,31.76c4.56,.7,19.79-11.3,21.38-15.49l-.89-1.16c-6.55,5.32-13.09,10.64-20.49,16.65Zm-290.74-53.32c5.32,7.13,10.37,13.89,15.41,20.65,.96-5.26-11.31-21.02-15.41-20.65Zm254.29-12.3c-.76-.38-1.51-.77-2.27-1.15-4.4,7.15-8.94,14.23-11.77,22.25,5.76-6.43,10.06-13.67,14.04-21.1Zm24.07,50.67c.3,.31,.6,.63,.89,.94,5.91-6.02,11.82-12.04,17.73-18.06-7.04,4.82-12.97,10.82-18.63,17.12ZM222.89,543.65c5.18,.58,20.83-12.3,21.09-17.17-7.14,5.82-13.66,11.13-21.09,17.17Zm333.21-17.22c.22,5.33,16.67,18.36,20.41,16.67-6.67-5.45-13.12-10.71-20.41-16.67Zm45.33-117.69c-.07,.94-.14,1.89-.21,2.83h25.41c.04-.52,.08-1.03,.11-1.55-8.44-.43-16.88-.86-25.32-1.29Zm-338.19,173.52c4.41-.42,16.06-15.39,16.27-20.64-5.76,6.15-10.68,12.99-16.27,20.64Zm115.58-407.72c-.74,.06-1.47,.11-2.21,.17,.73,8.29,1.46,16.58,2.19,24.87,.78-.06,1.57-.11,2.35-.17,.14-8.35-.94-16.62-2.34-24.87Zm-178.27,194.64c-8.18-1.19-16.36-2.38-25.79-3.75,3.49,4.02,22.17,6.85,25.79,3.75Zm3.1-84.99c8.38,4.97,15.6,9.26,23.94,14.21-1.82-5.31-18.72-15.36-23.94-14.21Zm385.11-10.11l-.87-1.06c-6.99,4.66-13.99,9.31-22.03,14.67,5.04,.76,21.39-9.93,22.9-13.61Zm-274.61,308.52c-.53-.27-1.06-.55-1.58-.82-3.59,7.6-7.19,15.21-11.16,23.62,4.15-1.31,12.35-17.27,12.74-22.79Zm182.55,22.76c.51-.21,1.03-.43,1.54-.64-3.55-7.61-7.09-15.22-10.84-23.27-2.06,3.14,5.1,20.1,9.3,23.91Zm-155.44-12.42c-4.03,7.49-5.9,15.72-8.43,24.49,3.65-1.74,9.38-18.44,8.43-24.49Zm67.21-394.11c3.41-1.35,5.01-20.39,1.51-25.58-.49,8.29-.98,16.59-1.51,25.58Zm-43.03-22.74c1.21,8.29,2.42,16.57,3.76,25.78,2.96-3.82,.28-23.21-3.76-25.78Zm-30.25,5.39c-2.35,4.76,3.33,23.62,7.95,26.64-2.76-9.24-5.15-17.25-7.95-26.64Zm-13.65,32.96c.77-.31,1.53-.61,2.3-.92-2.68-8.03-5.94-15.82-9.61-23.42-.76,.32-1.52,.65-2.28,.97,3.2,7.79,6.39,15.58,9.59,23.37Zm164.07-24.43c-3.23,7.78-6.47,15.56-10.1,24.31,4.62-1.94,12.36-20.04,10.1-24.31Zm-201.02,14.94c-.82,.46-1.64,.91-2.46,1.37,4.38,7.2,8.76,14.41,13.14,21.61,.77-.46,1.54-.92,2.31-1.38-4.33-7.2-8.66-14.4-12.99-21.61Zm-59.53,49.84c-.34,4.79,16.18,18.11,20.24,16.65-6.73-5.53-13.15-10.82-20.24-16.65Zm395.37,91.65c-.21-.91-.41-1.82-.62-2.73-8.18,2.09-16.36,4.17-24.54,6.26,.21,.84,.43,1.68,.64,2.52l24.51-6.05Zm-333.55-113.16c1.36-5-10.1-21.36-14.43-21.34,5.02,7.42,9.72,14.38,14.43,21.34Zm-104.43,233.98c9.01-2.23,17.15-4.48,24.82-8.17-5.11-1.33-22.56,4.42-24.82,8.17Zm345.02-255.17c-4.28-.29-16.17,17.17-14.6,21.74,5.03-7.49,9.7-14.45,14.6-21.74Zm-271.07,11.09c-.65,2.17-.92,2.61-.81,2.75,4.93,6.2,9.88,12.39,14.94,18.49,.25,.3,1.54-.27,3.07-.59-5.83-7-11.18-13.42-17.2-20.66Zm311.43,23.12c-6.83,6.21-13.08,11.88-20.14,18.29,5.4,.14,20.25-13.52,20.14-18.29Zm21.63,84.66c.29,.87,.59,1.74,.88,2.61l23.86-8.51c-.3-.87-.61-1.74-.91-2.62-7.94,2.84-15.88,5.67-23.82,8.51Zm-339.08-65.92c-2.91-6.49-16.04-17.32-19.68-16.52,6.57,6.07,12.59,11.97,19.68,16.52Zm363.72,210.23c-7.89-2.83-15.78-5.66-24.53-8.79,1.87,4.41,20.21,11.17,24.53,8.79Zm-424.85,10.82c3.77,1.89,21.33-4.84,24.37-9.2-8.31,1.93-15.95,5.6-24.37,9.2Zm5.63,12.65c8.44-4,15.99-7.58,23.54-11.16-4.9-1.93-22.18,6.58-23.54,11.16Zm17.17-225.76c1.19,5.57,17.97,15.96,21.41,14.16-7.33-4.85-14.37-9.5-21.41-14.16Zm-38.76,137.08c.05,.86,.1,1.71,.14,2.57,8.44-.39,16.89-.78,25.33-1.18-.05-.89-.1-1.78-.14-2.67-8.44,.43-16.89,.85-25.33,1.28Zm44.51-95.97c.19-.44,.38-.89,.57-1.33-7.63-3.62-15.26-7.24-23.78-11.28,1.57,4.44,18.89,13.03,23.21,12.61Zm.17,222.05c8.99-4.47,19.83-13.57,19.66-16.34-6.18,2.33-19.34,12.99-19.66,16.34Zm134.7,58.9c-3.95,2.47-8.85,19.8-7.49,25.16,3.91-7.49,4.9-15.86,7.49-25.16Zm-80.14-38.68c-.48-.43-.96-.87-1.45-1.3-5.35,6.5-10.69,12.99-16.26,19.75,3.4,.77,15.29-12.25,17.71-18.45Zm344.24-222.7c-8.8,.72-22.71,5.87-23.43,8.66,8.62-.67,22.69-5.87,23.43-8.66Zm-434.21-.62c2.06,3.65,19.29,9.44,24.62,8.27-7.58-3.8-15.71-5.94-24.62-8.27Zm27.18,.55c.16-.47,.32-.94,.48-1.41-3.14-3.62-21.28-9.57-24.85-7.33,8.54,3.06,16.45,5.9,24.37,8.74Zm358.26,219.11c-4.26-7.92-16.56-17.57-19.45-16.07,6.39,5.67,12.35,11.6,19.45,16.07Zm51.67-96.14c.11-.45,.23-.91,.34-1.36-3.32-3.1-21.55-7.37-25.8-5.04,9.18,2.31,17.32,4.35,25.46,6.4ZM263.63,251.77c.42-.41,.84-.83,1.27-1.24-2.28-5.81-14.75-18.44-18.5-17.73,5.95,6.55,11.59,12.77,17.24,18.98Zm40.64-57.32c-.52,.27-1.05,.53-1.57,.8,.42,5.66,8.48,21.44,12.79,22.89-4.02-8.49-7.62-16.09-11.22-23.69Zm20.66-8.29c-2.36,4.63,4.49,22.78,8.69,24.3-3.06-8.54-5.87-16.42-8.69-24.3Zm109.64-10.1c-.94-.12-1.87-.24-2.81-.36-.99,8.15-2,16.3-2.91,24.46-.02,.21,1.01,.54,2.19,1.13,1.22-8.73,2.38-16.98,3.53-25.22Zm80.92,419.35c1.62-4.88-9.05-21.78-13.19-21.98,4.56,7.6,8.87,14.79,13.19,21.98ZM199.02,381.66c.04-.87,.08-1.74,.12-2.61-8.31-.57-16.51-2.71-24.92-1.78-.05,.67-.11,1.34-.16,2.01,8.32,.79,16.64,1.58,24.96,2.38Zm373.43-86.28c.38,.75,.76,1.49,1.14,2.24,7.42-4.05,14.64-8.43,21.76-13-.43-.75-.86-1.51-1.29-2.26-7.31,4.15-14.49,8.53-21.61,13.02Zm-298.33,293.5c6.19-5.93,10.18-13.45,15.64-21.14-4.2,.71-14.49,14.82-15.64,21.14Zm325.77-209.78c3.89,3.29,23.22,1.41,26.97-2.64-9.41,.92-17.72,1.74-26.97,2.64Zm-277.57,234.21l2.6,.87c2.83-7.91,5.66-15.82,8.49-23.73-.89-.31-1.79-.63-2.68-.94-2.8,7.94-5.61,15.87-8.41,23.81Zm152.87,.78l2.61-.81c-2.85-7.7-5.67-15.41-8.62-23.08-.08-.21-1.38,.04-2.64,.1,2.99,8.22,5.82,16,8.65,23.79Zm-177.62-40.29c-4.79,.83-14.75,17.66-13.52,22.56,4.87-8.13,9.2-15.35,13.52-22.56Zm162.24,18.88c-.86,.28-1.71,.56-2.57,.84,2.46,7.79,4.9,15.59,7.45,23.35,.07,.22,1.38,.03,2.64,.03-2.6-8.38-5.07-16.3-7.53-24.22Zm166.31-169.06c-1.74-3.41-18.33-5.73-25.33-3.42,8.11,2.62,16.57,2.7,25.33,3.42Zm-73.99,146.44c.21-5.13-12.94-19.74-17.72-19.63,5.61,6.22,11.23,12.44,17.72,19.63Zm-304.32-1.03c7.23-5.25,16.88-17.03,16.43-19.84-5.25,3.09-16.54,16.34-16.43,19.84Zm-17.51-17.06c4.68,.7,19.85-12.77,20.33-18.25-7.1,6.38-13.37,12-20.33,18.25Zm146.19,73.74c.89,.09,1.78,.17,2.67,.26,.78-8.33,1.57-16.66,2.35-24.99-.87-.08-1.75-.15-2.62-.23-.8,8.32-1.6,16.65-2.4,24.97Zm241.27-158.09c-2.67-4.5-21.11-10.2-25.12-7.56,8.02,2.41,16.04,4.83,25.12,7.56ZM418.83,199.35l2.54,.1c.68-8.25,1.36-16.5,2.04-24.74-.78-.05-1.57-.11-2.35-.16-.94,8.26-2.38,16.47-2.23,24.81Zm-219.36,219.19c-8.81,.87-17.14,1.69-26.34,2.6,4.15,3.44,24.29,1.33,26.34-2.6Zm352.69-186.78c-6.72,5.23-12,11.85-18.19,18.63,4.16,.25,17.24-13.38,18.19-18.63Zm-133.81,368.61c.93,9,1.79,17.3,2.65,25.6,3.3-4.69,1.19-23.03-2.65-25.6Z"/>
      <path d="M230.92,58.28c-1.54,.89-2.81,1.63-4.66,2.71-2.78-5.56-5.48-10.95-8.29-16.58,1.48-.88,2.71-1.62,4.5-2.69,2.87,5.62,5.62,11,8.46,16.56Z"/>
      <path d="M118.78,115.62c4.47,4.68,8.55,8.95,13.17,13.78-.91,.66-2.19,1.59-3.54,2.58-4.11-4.26-8.21-8.52-12.95-13.43,.87-.77,2.04-1.8,3.32-2.93Z"/>
      <path d="M671.17,131.96c-1.16-.97-2.26-1.9-3.43-2.88,4.61-4.67,8.76-8.86,13.2-13.36,1.25,1.2,2.37,2.27,3.33,3.19-4.44,4.43-8.62,8.58-13.11,13.05Z"/>
      <path d="M112.5,677.99c-1.62-1.7-2.61-2.74-3.88-4.07,4.48-4.28,8.76-8.37,13.28-12.68,1.25,1.17,2.3,2.14,3.36,3.13-4.23,4.52-8.28,8.84-12.75,13.62Z"/>
      <path d="M758.32,577.44c-.69,1.62-1.24,2.93-2.09,4.94-5.62-2.85-10.97-5.56-16.63-8.42,.85-1.7,1.49-2.97,2.35-4.71,5.53,2.77,10.8,5.41,16.37,8.19Z"/>
      <path d="M126.17,108.78c4.34,4.54,8.43,8.83,13.04,13.66-1.27,1.31-2.35,2.41-3.04,3.12-4.95-4.61-9.3-8.66-13.96-13.01,1.45-1.38,2.59-2.46,3.96-3.77Z"/>
      <path d="M687.09,651.18c1.23-1.41,2.26-2.59,3.47-3.98,4.77,4.1,9.27,7.97,14.09,12.12-1.26,1.39-2.3,2.54-3.57,3.94-4.74-4.09-9.22-7.95-14-12.07Z"/>
      <path d="M135.52,674.07c1.32,1.51,2.27,2.61,3.49,4.01-4.27,4.51-8.35,8.81-12.67,13.36-1.34-1.14-2.43-2.06-4.05-3.44,4.29-4.52,8.35-8.8,13.22-13.93Z"/>
      <path d="M277.07,780.65c-1.95-.69-3.18-1.13-4.91-1.75,1.88-5.77,3.71-11.38,5.68-17.42,1.71,.49,3.19,.92,5.1,1.48-1.98,5.97-3.84,11.57-5.87,17.69Z"/>
      <path d="M677.73,687.85c-1.5,1.4-2.54,2.36-3.89,3.62-4.3-4.53-8.37-8.83-13.01-13.72,1.27-1.15,2.34-2.12,3.88-3.52,4.41,4.61,8.49,8.88,13.02,13.62Z"/>
      <path d="M677.8,112.35c-4.32,4.53-8.39,8.8-12.76,13.39-1.39-1.21-2.55-2.23-3.99-3.49,4.36-4.57,8.44-8.86,12.81-13.44,1.3,1.16,2.46,2.21,3.94,3.53Z"/>
      <path d="M701.16,136.97c1.19,1.4,2.12,2.5,3.43,4.05-4.64,4.02-9.11,7.89-14.27,12.35-1.12-1.3-2.14-2.48-3.45-4.01,4.91-4.26,9.5-8.25,14.28-12.4Z"/>
      <path d="M653.96,684.2c1.25-1.25,2.27-2.28,3.72-3.74,4.54,4.98,8.58,9.42,13.19,14.47-1.46,1.09-2.61,1.95-4.24,3.16-4.11-4.51-8.16-8.96-12.67-13.9Z"/>
      <path d="M141.88,680.88c1.47,1.26,2.57,2.21,4.03,3.46-4.19,4.65-8.23,9.13-12.44,13.8-1.33-1.17-2.42-2.12-3.94-3.45,4.09-4.58,8.02-8.98,12.34-13.81Z"/>
      <path d="M12.87,499.85c-.48-1.7-.87-3.07-1.42-5.02,5.93-1.52,11.65-2.99,17.84-4.57,.48,1.68,.9,3.14,1.44,5.04-6.11,1.56-11.83,3.02-17.86,4.56Z"/>
      <path d="M80.42,640.46c-1.23-1.69-2.06-2.84-3.11-4.29,4.94-3.7,9.67-7.23,14.72-11.01,1.11,1.42,2.07,2.64,3.28,4.18-5,3.74-9.72,7.26-14.89,11.12Z"/>
      <path d="M217.99,65.28c-3.08-5.74-5.79-10.81-8.73-16.29,1.43-.88,2.74-1.68,4.49-2.76,2.97,5.5,5.76,10.67,8.77,16.25-1.49,.92-2.8,1.73-4.54,2.8Z"/>
      <path d="M698.36,666.88c-1.37,1.55-2.32,2.62-3.5,3.95-4.96-4.48-9.34-8.43-13.99-12.63,1.24-1.42,2.27-2.6,3.49-4,4.67,4.23,9.05,8.21,13.99,12.68Z"/>
      <path d="M677.97,661.06c4.64,4.39,8.93,8.44,13.44,12.71-1.17,1.33-2.11,2.39-3.48,3.96-4.49-4.2-8.79-8.22-13.43-12.56,1.17-1.38,2.16-2.55,3.47-4.11Z"/>
      <path d="M81.59,190.6c-5.47-3.64-10.26-6.83-15.43-10.27,.84-1.46,1.61-2.79,2.65-4.59,5.16,3.43,10.06,6.69,15.45,10.27-.85,1.45-1.61,2.75-2.67,4.58Z"/>
      <path d="M99.03,663.25c-1.22-1.31-2.2-2.36-3.58-3.85,4.77-4.14,9.32-8.1,14.03-12.19,1.21,1.31,2.2,2.39,3.58,3.89-4.7,4.07-9.26,8.01-14.04,12.15Z"/>
      <path d="M601.78,76.7c3.5-5.51,6.59-10.38,9.93-15.64,1.48,.85,2.82,1.62,4.55,2.62-3.32,5.27-6.45,10.25-9.86,15.66-1.55-.88-2.88-1.65-4.62-2.64Z"/>
      <path d="M24.75,332.44c-.35,1.9-.59,3.15-.93,4.99-6.02-.97-11.82-1.9-18.05-2.9,.22-1.83,.4-3.36,.63-5.31,6.15,1.08,11.95,2.1,18.35,3.22Z"/>
      <path d="M126.03,135.66c-1.48,1.47-2.49,2.47-3.76,3.73-4.73-4.48-9.02-8.54-13.51-12.79,1.05-1.35,1.92-2.47,3.24-4.18,4.58,4.32,8.95,8.44,14.03,13.23Z"/>
      <path d="M1.56,368.16c6.11,.46,11.86,.89,17.93,1.35v5.11c-5.97-.37-11.72-.72-17.93-1.1v-5.36Z"/>
      <path d="M619.97,66.27c1.55,1.02,2.74,1.79,4.43,2.9-3.41,5.12-6.67,10.02-10.18,15.3-1.59-.98-2.92-1.8-4.49-2.77,3.52-5.3,6.8-10.24,10.24-15.42Z"/>
      <path d="M69.13,624.45c-1.16-1.55-2.03-2.71-3.2-4.26,5.18-3.48,10.21-6.86,15.47-10.38,1.04,1.44,1.88,2.61,3.11,4.31-5.1,3.43-9.98,6.71-15.37,10.34Z"/>
      <path d="M717,156.25c-4.97,3.87-9.65,7.51-14.63,11.39-1.19-1.46-2.2-2.69-3.35-4.1,4.96-3.87,9.65-7.52,14.62-11.39,1.15,1.41,2.16,2.64,3.35,4.1Z"/>
      <path d="M86.79,182.85c-5.26-3.7-10.07-7.09-15.14-10.65,.97-1.54,1.74-2.75,2.82-4.46,5.18,3.63,10.13,7.1,15.27,10.69-.93,1.4-1.74,2.61-2.95,4.42Z"/>
      <path d="M105.51,670.63c-1.38-1.54-2.34-2.6-3.52-3.93,4.56-4.16,8.91-8.14,14.04-12.83,1.01,1.42,1.92,2.69,3.13,4.38-4.47,4.06-8.83,8.01-13.64,12.37Z"/>
      <path d="M655.8,707.44c-1.47,1.28-2.56,2.23-4.01,3.5-3.99-4.83-7.85-9.49-11.84-14.33,1.35-1.15,2.46-2.1,4.03-3.43,3.91,4.72,7.68,9.27,11.82,14.27Z"/>
      <path d="M148.36,710.91c-1.4-1.15-2.63-2.17-4.08-3.36,4-4.88,7.77-9.47,11.77-14.35,1.5,1.24,2.71,2.23,4.11,3.38-4.02,4.88-7.8,9.47-11.81,14.34Z"/>
      <path d="M55.53,603.53c5.59-3.37,10.53-6.35,15.86-9.57,.96,1.39,1.83,2.66,2.99,4.33-5.34,3.24-10.38,6.29-15.82,9.6-.96-1.38-1.83-2.64-3.03-4.36Z"/>
      <path d="M183.86,63.89c1.51-1.03,2.69-1.84,4.4-3,3.35,5.27,6.57,10.34,9.95,15.66-1.47,.99-2.65,1.78-4.41,2.96-3.37-5.29-6.59-10.35-9.94-15.62Z"/>
      <path d="M33.36,240.59c.81-1.78,1.4-3.1,2.2-4.85,5.64,2.5,11.03,4.9,16.72,7.42-.65,1.75-1.15,3.08-1.86,5-5.67-2.52-11.05-4.91-17.06-7.57Z"/>
      <path d="M754.01,586.33c-.91,1.65-1.68,3.03-2.56,4.64-5.52-2.96-10.74-5.77-16.31-8.76,.9-1.62,1.66-2.97,2.58-4.62,5.57,2.99,10.79,5.79,16.29,8.75Z"/>
      <path d="M789.62,309.99c.48,1.89,.81,3.16,1.29,5.05-5.98,1.37-11.86,2.72-18.11,4.15-.41-1.84-.71-3.21-1.13-5.1,6.02-1.38,11.77-2.69,17.95-4.11Z"/>
      <path d="M659.19,95.8c1.41,1.1,2.54,1.98,4.18,3.25-4.11,4.77-8.04,9.33-12.21,14.17-1.5-1.31-2.69-2.35-4.02-3.52,4.12-4.75,8-9.23,12.06-13.9Z"/>
      <path d="M793.68,329.15c.27,2.05,.46,3.47,.71,5.32-6.08,1.01-11.88,1.97-18.01,2.99-.37-1.78-.65-3.15-1.02-4.96,6.19-1.13,11.97-2.19,18.32-3.35Z"/>
      <path d="M103.54,639.95c1.27,1.56,2.18,2.67,3.36,4.12-4.75,3.92-9.31,7.67-14.53,11.98-1.04-1.19-1.96-2.24-3.46-3.95,4.97-4.12,9.58-7.95,14.63-12.14Z"/>
      <path d="M568.65,37.54c1.85,.99,3.09,1.66,4.68,2.51-2.66,5.62-5.19,10.96-7.82,16.53-1.67-.77-2.98-1.37-4.76-2.19,2.61-5.57,5.11-10.91,7.9-16.85Z"/>
      <path d="M775.35,467.86c.41-1.93,.7-3.29,1.09-5.11,6.08,1.08,11.87,2.11,18.04,3.21-.29,1.82-.51,3.21-.83,5.15-6.08-1.08-12-2.13-18.3-3.25Z"/>
      <path d="M214.44,67.19c-1.87,.98-3.13,1.64-4.7,2.46-3.06-5.38-5.97-10.5-9.01-15.85,1.43-.98,2.61-1.78,4.35-2.97,3.09,5.41,6.07,10.62,9.35,16.37Z"/>
      <path d="M704.79,629.39c1.09-1.5,1.94-2.66,3.15-4.31,5.01,3.74,9.86,7.35,14.91,11.12-1.06,1.43-1.92,2.56-3.15,4.22-5-3.7-9.84-7.27-14.91-11.02Z"/>
      <path d="M196.65,55.83c3.25,5.39,6.3,10.45,9.58,15.89-1.54,.93-2.86,1.74-4.52,2.75-3.22-5.36-6.25-10.4-9.48-15.78,1.56-1.01,2.86-1.85,4.43-2.86Z"/>
      <path d="M710.95,651.83c-1.33,1.51-2.29,2.59-3.52,3.98-4.72-3.87-9.28-7.62-14.17-11.63,1.11-1.5,2.04-2.75,3.15-4.24,4.9,4.01,9.49,7.77,14.53,11.9Z"/>
      <path d="M368.01,1.89c4.5-1.51,5.73,.17,5.75,3.82,.03,4.44,.39,8.87,.62,13.79-1.5,.18-3.03,.37-4.93,.6-.5-6.27-.96-12.13-1.45-18.21Z"/>
      <path d="M663.2,701.08c-1.26,1.18-2.29,2.15-3.88,3.65-4.11-4.76-8.04-9.31-12.22-14.14,1.46-1.22,2.67-2.24,4.09-3.43,4.12,4.77,7.97,9.23,12.01,13.92Z"/>
      <path d="M149.32,686.67c1.58,1.57,2.6,2.59,3.8,3.78-4.27,4.92-8.13,9.38-12.19,14.04-1.47-1.11-2.61-1.97-4.25-3.21,4.12-4.76,8.06-9.31,12.64-14.61Z"/>
      <path d="M196.7,744.48c-1.72-1.09-2.93-1.86-4.47-2.84,3.15-5.26,6.18-10.31,9.44-15.76,1.53,.87,2.87,1.63,4.61,2.62-3.2,5.34-6.23,10.39-9.58,15.98Z"/>
      <path d="M193.74,720.91c1.54,.95,2.88,1.76,4.5,2.76-3.36,5.33-6.52,10.33-9.89,15.66-1.6-.99-2.93-1.83-4.51-2.81,3.37-5.31,6.54-10.31,9.89-15.61Z"/>
      <path d="M113.05,149.19c-1.3,1.45-2.28,2.54-3.53,3.94-4.65-4.01-9.12-7.86-13.89-11.98,1.06-1.41,1.99-2.65,3.18-4.23,4.8,4.13,9.28,7.99,14.25,12.26Z"/>
      <path d="M86.67,617.52c1.21,1.7,2.04,2.86,3.11,4.35-5.07,3.56-9.93,6.97-15.05,10.56-1.11-1.39-1.99-2.5-3.3-4.14,5.1-3.61,9.93-7.02,15.24-10.77Z"/>
      <path d="M798.54,368.17c.18,1.81,.31,3.23,.5,5.19-6.21,.46-12.08,.89-18.45,1.36-.15-1.71-.28-3.27-.45-5.17,6.3-.47,12.18-.92,18.4-1.38Z"/>
      <path d="M175.74,731c3.55-5.29,6.75-10.07,10.2-15.22,1.51,.96,2.81,1.79,4.43,2.83-3.51,5.27-6.78,10.19-10.32,15.51-1.58-1.15-2.92-2.12-4.31-3.13Z"/>
      <path d="M625.03,707.92c1.69-1.21,2.87-2.04,4.32-3.08,3.71,4.97,7.24,9.71,10.94,14.67-1.28,1.14-2.36,2.09-3.99,3.53-3.75-5.04-7.35-9.86-11.27-15.13Z"/>
      <path d="M439.98,20.56c-4.06,.84-5.25-.38-4.87-3.51,.57-4.74,.97-9.49,1.5-14.88,1.71,.13,3.34,.26,5.27,.41-.67,6.35-1.29,12.18-1.9,17.97Z"/>
      <path d="M163.92,722.89c-1.51-1.15-2.65-2.02-4.17-3.19,3.62-4.94,7.11-9.7,10.88-14.84,1.45,.99,2.73,1.86,4.43,3.02-3.8,5.13-7.4,9.98-11.13,15.01Z"/>
      <path d="M58.26,569.18c.87,1.86,1.47,3.15,2.25,4.81-5.55,2.79-10.84,5.44-16.33,8.2-.88-1.43-1.55-2.53-2.74-4.48,5.54-2.81,10.9-5.52,16.82-8.52Z"/>
      <path d="M63.62,616.29c-1.04-1.61-1.82-2.82-2.85-4.43,5.18-3.32,10.14-6.5,15.48-9.92,1.01,1.4,1.9,2.65,3.11,4.35-5.27,3.35-10.24,6.51-15.73,10Z"/>
      <path d="M728.67,172.01c-5.25,3.71-9.97,7.05-15.11,10.68-1.08-1.33-2.05-2.54-3.32-4.11,5.16-3.66,10-7.09,15.08-10.7,1.06,1.3,1.96,2.41,3.35,4.13Z"/>
      <path d="M632.62,702.49c1.54-1.31,2.65-2.25,4.07-3.46,3.79,4.82,7.46,9.49,11.4,14.49-1.26,1.14-2.41,2.19-3.95,3.59-3.84-4.87-7.5-9.52-11.53-14.62Z"/>
      <path d="M167.54,725.56c3.81-5.41,7.12-10.1,10.66-15.14,1.51,.98,2.81,1.81,4.49,2.89-3.63,5.14-7.02,9.94-10.69,15.14-1.53-1-2.82-1.83-4.46-2.9Z"/>
      <path d="M444.07,21.48c.84-6.44,1.6-12.28,2.41-18.47,1.79,.26,3.17,.47,5.01,.73-.74,6.22-1.43,12.05-2.15,18.2-1.83-.16-3.25-.28-5.27-.46Z"/>
      <path d="M290.91,15.73c1.69-.59,3.04-1.06,4.92-1.71,1.68,5.95,3.29,11.64,5.04,17.82-1.61,.5-3.08,.95-5.06,1.57-1.69-6.11-3.26-11.76-4.9-17.68Z"/>
      <path d="M743.57,565.5c1.02-1.87,1.71-3.11,2.55-4.65,5.49,2.59,10.7,5.06,16.41,7.75-.64,1.55-1.21,2.96-2.01,4.9-5.7-2.69-11.04-5.21-16.95-8Z"/>
      <path d="M209.18,751.47c3.12-5.78,5.85-10.83,8.74-16.2,1.53,.75,2.79,1.37,4.66,2.29-2.94,5.54-5.74,10.84-8.73,16.47-1.68-.92-3.06-1.67-4.68-2.56Z"/>
      <path d="M590.86,751.41c-1.54,.92-2.79,1.66-4.55,2.71-2.95-5.49-5.79-10.78-8.76-16.3,1.58-.97,2.79-1.72,4.5-2.77,2.99,5.55,5.85,10.85,8.82,16.36Z"/>
      <path d="M69.59,209.96c-1.13,1.76-1.9,2.95-2.9,4.5-5.4-3.08-10.52-6.01-15.89-9.07,.89-1.62,1.58-2.88,2.52-4.59,5.37,3.03,10.5,5.92,16.27,9.16Z"/>
      <path d="M733.26,214.46c-.94-1.6-1.65-2.81-2.64-4.49,5.42-3.09,10.54-6.01,16.03-9.15,.93,1.56,1.72,2.91,2.71,4.58-5.53,3.11-10.67,6-16.11,9.05Z"/>
      <path d="M432.04,1.81c-.46,6.07-.89,11.8-1.34,17.83h-4.45c-.15-.47-.43-.92-.41-1.36,.17-4.45,.23-8.92,.64-13.35,.33-3.52,.68-3.6,5.56-3.12Z"/>
      <path d="M358.22,2.66c1.77-.24,3.31-.45,5.23-.72,.59,6.27,1.13,12.12,1.72,18.4-1.73,.24-3.1,.43-4.99,.69-.66-6.23-1.29-12.06-1.96-18.37Z"/>
      <path d="M231.49,762.73c-1.8-.86-3.09-1.48-4.81-2.29,2.66-5.61,5.19-10.96,7.86-16.59,1.56,.65,2.88,1.2,4.8,2.01-2.59,5.58-5.08,10.92-7.85,16.88Z"/>
      <path d="M338.79,5.36c1.82-.46,3.08-.77,4.98-1.25,.99,6.06,1.94,11.88,2.98,18.25-1.71,.33-3.22,.62-5.22,1-.93-6.13-1.8-11.81-2.74-18.01Z"/>
      <path d="M243.1,747.61c1.88,.89,3.18,1.51,4.78,2.27-2.52,5.68-4.92,11.1-7.45,16.78-1.62-.65-2.95-1.18-4.87-1.96,2.51-5.69,4.89-11.08,7.54-17.09Z"/>
      <path d="M332.25,24.54c-.96-5.16-2.03-10.01-2.65-14.91-.13-1.06,1.32-2.33,2.05-3.5,1.07,.92,2.78,1.67,3.08,2.79,.97,3.67,1.32,7.49,2.09,11.21,.73,3.53-.48,5.04-4.57,4.4Z"/>
      <path d="M534.79,756.93c1.83-.76,3.17-1.32,4.97-2.06,2.22,5.77,4.34,11.3,6.58,17.14-1.58,.75-2.85,1.35-4.71,2.23-2.27-5.75-4.44-11.22-6.84-17.3Z"/>
      <path d="M328.17,25.59c-1.91,.44-3.18,.73-5.06,1.16-1.2-6.04-2.37-11.96-3.62-18.26,2.04-.27,3.45-.45,5.19-.68,1.17,5.97,2.28,11.63,3.49,17.78Z"/>
      <path d="M532.3,777.46c-2.16-6-4.16-11.54-6.26-17.35,1.66-.63,3-1.14,4.95-1.88,2.08,5.77,4.07,11.3,6.24,17.33-1.67,.64-3.09,1.19-4.93,1.9Z"/>
      <path d="M319.04,27.57c-1.84,.42-3.22,.74-5.07,1.16-1.39-6.05-2.71-11.78-4.06-17.67,3.36-1.84,5.33-1.73,6.04,2.38,.78,4.55,1.96,9.04,3.09,14.13Z"/>
      <path d="M517.11,762.97c2-.66,3.34-1.11,5-1.66,2,5.97,3.87,11.54,5.84,17.43-1.56,.65-2.87,1.2-4.86,2.03-2-5.96-3.91-11.64-5.98-17.8Z"/>
      <path d="M309.85,29.44c-1.63,.56-2.98,1.03-4.95,1.7-1.55-6.14-3.01-11.95-4.49-17.81,3.16-1.75,5.17-2.05,5.96,1.99,.92,4.66,2.26,9.24,3.48,14.11Z"/>
      <path d="M495.2,31.12c-1.98-.61-3.22-1-4.97-1.55,1.44-5.83,2.85-11.52,4.38-17.7,1.82,.37,3.31,.68,5.16,1.05-1.57,6.24-3,11.95-4.57,18.19Z"/>
      <path d="M295.75,786.44c-2.2-.89-3.38-1.37-4.81-1.95,1.59-5.81,3.11-11.36,4.77-17.46,1.71,.43,3.2,.81,5.17,1.31-1.73,6.09-3.37,11.87-5.13,18.1Z"/>
      <path d="M286.38,16.79c1.87,6.01,3.61,11.64,5.43,17.5-1.54,.63-2.88,1.17-4.89,1.99-1.82-5.99-3.56-11.72-5.4-17.76,1.78-.63,3.1-1.1,4.86-1.73Z"/>
      <path d="M513.3,36.07c-1.87-.6-3.23-1.03-5.03-1.6,1.79-5.89,3.5-11.54,5.32-17.52,1.63,.42,3.01,.77,5.04,1.29-1.77,5.94-3.46,11.58-5.33,17.84Z"/>
      <path d="M499.19,768.46c1.71-.54,3.08-.98,5.04-1.59,1.66,5.92,3.25,11.58,4.94,17.59-1.52,.62-2.82,1.15-4.83,1.96-1.73-6.04-3.35-11.69-5.14-17.96Z"/>
      <path d="M300.26,787.52c1.6-6.33,3.03-12.01,4.53-17.95,1.91,.38,3.29,.65,5.11,1.01-1.51,6.02-2.93,11.72-4.44,17.77-1.61-.26-2.98-.48-5.2-.83Z"/>
      <path d="M499.71,787.08c-1.67,.57-3.01,1.03-4.91,1.68-1.57-6.08-3.08-11.92-4.67-18.09,1.78-.41,3.16-.73,5.12-1.18,1.5,5.93,2.95,11.62,4.46,17.59Z"/>
      <path d="M313.86,771.7c1.91,.39,3.3,.67,5.17,1.06-1.36,6.06-2.65,11.81-4.02,17.91-1.67-.28-3.06-.51-5.11-.86,1.31-6,2.56-11.74,3.96-18.11Z"/>
      <path d="M475.51,792.87c-1.22-6.17-2.37-11.96-3.53-17.79,3.58-2.03,5.32-1.28,5.92,2.64,.69,4.55,1.74,9.04,2.7,13.85-1.74,.44-3.26,.83-5.08,1.29Z"/>
      <path d="M546.42,28.12c-2.32,6-4.39,11.36-6.64,17.17-1.8-.66-3.24-1.18-4.97-1.81,2.3-5.93,4.44-11.43,6.68-17.2,1.69,.63,3.03,1.13,4.93,1.84Z"/>
      <path d="M256.56,46.88c-1.96,.81-3.28,1.36-4.91,2.04-2.37-5.74-4.62-11.2-7-16.96,1.62-.77,2.89-1.37,4.71-2.23,2.39,5.69,4.67,11.11,7.21,17.16Z"/>
      <path d="M543.55,46.93c2.46-5.94,4.66-11.25,7.07-17.08,1.66,.67,3.06,1.24,4.86,1.96-2.43,5.9-4.67,11.36-7.02,17.08-1.62-.65-2.95-1.18-4.91-1.96Z"/>
      <path d="M247.86,50.41c-1.53,.78-2.83,1.44-4.71,2.39-2.5-5.62-4.93-11.09-7.55-16.98,1.74-.79,3.13-1.43,4.82-2.19,2.57,5.81,4.96,11.19,7.44,16.78Z"/>
      <path d="M462.6,776.27c2.08-.3,3.34-.49,5.14-.75,1.11,5.97,2.17,11.73,3.3,17.83-1.59,.44-2.93,.82-5.05,1.41-1.13-6.13-2.21-12.02-3.4-18.5Z"/>
      <path d="M37.39,231.6c.81-1.71,1.43-3.01,2.28-4.79,5.54,2.64,10.85,5.17,16.54,7.88-.61,1.57-1.12,2.88-1.91,4.92-5.76-2.73-11.21-5.31-16.91-8.01Z"/>
      <path d="M343.97,795.86c-1.82-.17-3.09-.28-5.12-.47,.85-6.06,1.65-11.85,2.5-17.9h5.34c-.92,6.22-1.78,12.02-2.71,18.37Z"/>
      <path d="M586.26,46.26c1.84,1.03,3.09,1.74,4.62,2.6-2.88,5.4-5.65,10.59-8.67,16.24-1.53-.78-2.88-1.47-4.72-2.41,2.95-5.53,5.71-10.7,8.77-16.43Z"/>
      <path d="M599.46,53.67c-3.13,5.48-6.04,10.59-9.09,15.94-1.55-.8-2.82-1.46-4.66-2.42,3.05-5.44,5.99-10.66,9.12-16.24,1.65,.97,2.98,1.75,4.64,2.72Z"/>
      <path d="M453.34,777.63c1.98-.23,3.4-.4,5.28-.62,.89,6.05,1.74,11.89,2.65,18.14-1.77,.33-3.14,.58-5.01,.93-.97-6.14-1.89-11.96-2.92-18.45Z"/>
      <path d="M190.38,81.66c-1.65,1.06-2.84,1.83-4.42,2.84-3.46-5.13-6.75-10.02-10.21-15.15,1.42-1.07,2.57-1.93,4.2-3.16,3.45,5.12,6.75,10.01,10.43,15.47Z"/>
      <path d="M182.59,86.87c-1.63,1.17-2.79,2.01-4.33,3.12-3.57-5.07-6.98-9.93-10.57-15.02,1.38-1.11,2.5-2.01,4.12-3.31,3.56,5.03,6.98,9.86,10.77,15.21Z"/>
      <path d="M621.85,89.97c-1.52-1.05-2.69-1.86-4.39-3.04,3.59-5.08,7.06-9.98,10.67-15.1,1.53,1.04,2.72,1.84,4.36,2.96-3.6,5.14-7.06,10.07-10.64,15.18Z"/>
      <path d="M159.71,80.67c1.42-1.1,2.55-1.98,4.2-3.25,3.75,5.04,7.36,9.88,11.09,14.9-1.41,1.05-2.55,1.92-4.21,3.16-3.71-4.96-7.31-9.77-11.08-14.81Z"/>
      <path d="M764.52,235.7c.84,1.85,1.44,3.17,2.21,4.85-5.66,2.51-11.08,4.91-16.78,7.44-.76-1.48-1.41-2.75-2.36-4.61,5.63-2.56,10.99-4.99,16.93-7.69Z"/>
      <path d="M167.49,97.94c-1.54,1.26-2.55,2.09-4.06,3.33-3.88-4.91-7.63-9.66-11.56-14.64,1.45-1.12,2.59-1.99,4.21-3.24,3.89,4.96,7.61,9.7,11.41,14.55Z"/>
      <path d="M636.79,101.17c-1.44-1.09-2.59-1.95-4.21-3.18,3.78-4.85,7.4-9.5,11.3-14.5,1.55,1.09,2.81,1.98,4.36,3.06-3.95,5.04-7.61,9.72-11.45,14.62Z"/>
      <path d="M144.29,92.82c1.44-1.19,2.54-2.09,4.07-3.35,3.93,4.73,7.7,9.27,11.75,14.14-1.27,1.16-2.42,2.22-3.94,3.61-4.01-4.86-7.85-9.51-11.88-14.4Z"/>
      <path d="M651.6,89.52c1.55,1.14,2.71,2,4.28,3.15-3.91,4.8-7.66,9.4-11.66,14.31-1.39-.96-2.68-1.86-4.37-3.03,3.93-4.82,7.65-9.38,11.76-14.43Z"/>
      <path d="M48.75,251.83c-.66,1.67-1.18,2.99-1.93,4.87-5.77-2.37-11.31-4.64-17.17-7.04,.65-1.72,1.15-3.05,1.86-4.91,5.81,2.38,11.35,4.66,17.24,7.08Z"/>
      <path d="M753.42,256.74c-.77-1.86-1.32-3.17-2.05-4.92,5.71-2.36,11.17-4.62,16.95-7.02,.74,1.52,1.36,2.78,2.29,4.68-5.75,2.43-11.16,4.71-17.19,7.26Z"/>
      <path d="M657.99,119.62c-1.59-1.39-2.67-2.33-3.98-3.46,4.47-4.98,8.41-9.36,12.62-14.04,1.33,1.22,2.48,2.28,3.91,3.6-4.18,4.63-8.12,9-12.55,13.91Z"/>
      <path d="M688.13,122.28c1.28,1.35,2.25,2.38,3.31,3.5-4.5,4.76-8.57,9.07-13.29,14.06-1.56-1.6-2.66-2.72-4.07-4.17,4.9-4.67,9.19-8.76,14.05-13.39Z"/>
      <path d="M25.84,258.7c.82-1.85,1.41-3.16,2.16-4.84,5.76,2.24,11.26,4.38,17.08,6.64-.62,1.67-1.12,3-1.83,4.9-5.76-2.21-11.27-4.33-17.41-6.7Z"/>
      <path d="M41.82,269.25c-.58,1.68-1.04,3.01-1.71,4.96-5.85-2.09-11.48-4.1-17.4-6.22,.58-1.78,1.01-3.13,1.62-5,5.93,2.12,11.57,4.15,17.48,6.27Z"/>
      <path d="M92.63,144.51c5.1,4.19,9.56,7.85,14.27,11.72-1.16,1.4-2.15,2.6-3.37,4.08-4.86-3.97-9.44-7.71-14.33-11.71,1.18-1.4,2.18-2.59,3.44-4.09Z"/>
      <path d="M761.21,278.14c6.11-2.03,11.61-3.86,17.62-5.85,.59,1.63,1.11,3.07,1.78,4.92-6.03,2.02-11.63,3.9-17.48,5.85-.67-1.7-1.2-3.05-1.93-4.92Z"/>
      <path d="M787.34,300.44c.46,2.03,.77,3.41,1.16,5.1-5.99,1.54-11.72,3-17.76,4.55-.46-1.72-.83-3.09-1.36-5.07,5.95-1.52,11.65-2.97,17.96-4.58Z"/>
      <path d="M95.34,170.98c-1.23,1.64-2.01,2.69-3.14,4.19-4.95-3.66-9.8-7.24-14.88-11,.98-1.45,1.78-2.64,2.94-4.37,5.03,3.73,9.86,7.32,15.08,11.19Z"/>
      <path d="M704.64,171c5.34-3.92,10.1-7.42,15.05-11.06,1.11,1.42,2,2.56,3.19,4.08-4.89,3.68-9.61,7.23-14.69,11.06-1.09-1.26-2.12-2.43-3.55-4.08Z"/>
      <path d="M28.33,314.06c-.34,1.79-.6,3.17-.96,5.09-6.09-1.34-11.86-2.61-18.05-3.97,.41-1.8,.74-3.31,1.16-5.16,6.08,1.38,11.83,2.68,17.85,4.05Z"/>
      <path d="M23.1,341.52c-.32,2.13-.53,3.53-.8,5.32-6.22-.96-12.06-1.86-18.14-2.8,.22-1.81,.37-3.06,.62-5.04,6.06,.83,11.87,1.63,18.32,2.52Z"/>
      <path d="M777.5,341.55c5.76-.86,11.57-1.72,17.32-2.57,2.15,3.89,.69,5.42-2.89,5.85-3.44,.41-6.94,.6-10.27,1.45-4.35,1.11-4.91-.78-4.15-4.73Z"/>
      <path d="M3.28,353.85v-5.06c6.15,.67,12.12,1.32,18.38,2-.12,1.89-.22,3.3-.35,5.31-6.06-.76-11.77-1.47-18.03-2.26Z"/>
      <path d="M795.51,456.13c.75,3.74-.02,5.44-3.65,4.81-4.85-.84-9.73-1.5-14.8-2.26,.17-1.79,.31-3.21,.5-5.14,6.15,.89,11.95,1.73,17.95,2.59Z"/>
      <path d="M734.14,180.22c-5.24,3.49-10.18,6.78-15.36,10.23-1.12-1.48-1.99-2.62-3.19-4.2,5.18-3.5,10.09-6.83,15.32-10.37,1.1,1.48,2.03,2.74,3.22,4.34Z"/>
      <path d="M23.64,462.75c.41,1.86,.72,3.22,1.13,5.08-6.16,1.12-11.96,2.18-18.1,3.3-.4-1.63-.73-3-1.24-5.09,6.1-1.1,12-2.17,18.22-3.29Z"/>
      <path d="M774.93,472.04c6,1.2,11.77,2.35,17.88,3.57-.4,1.82-.71,3.21-1,4.49-.48,.2-.8,.47-1.06,.42-4.38-.84-8.72-1.95-13.13-2.52-3.82-.49-4.36-2.24-2.69-5.97Z"/>
      <path d="M27.45,481.11c.4,2.04,.64,3.3,.99,5.09-5.89,1.36-11.63,2.69-17.69,4.09-.57-1.63-1.04-2.96-1.74-4.95,6.19-1.42,12.06-2.77,18.44-4.23Z"/>
      <path d="M788.67,494.74c-.46,1.82-.8,3.19-1.28,5.06-5.98-1.47-11.7-2.88-17.73-4.36,.26-1.72,.48-3.12,.8-5.18,6.15,1.51,12.01,2.95,18.21,4.48Z"/>
      <path d="M780.75,523.15c-.78,1.92-1.32,3.25-1.98,4.86-5.91-1.96-11.52-3.83-17.5-5.81,.63-1.72,1.12-3.05,1.8-4.93,5.95,1.98,11.68,3.88,17.68,5.87Z"/>
      <path d="M754.99,539.89c.61-1.74,1.09-3.09,1.76-4.98,5.86,2.26,11.48,4.43,17.41,6.72-.75,1.79-1.3,3.1-2.02,4.82-5.82-2.22-11.34-4.33-17.15-6.55Z"/>
      <path d="M79.38,194.05c-1.23,1.69-2.07,2.85-3.11,4.28-5.23-3.33-10.22-6.5-15.52-9.87,1.01-1.59,1.86-2.93,2.82-4.45,5.27,3.35,10.27,6.52,15.8,10.04Z"/>
      <path d="M720.93,193.87c5.39-3.4,10.39-6.56,15.58-9.84,.96,1.49,1.74,2.7,2.86,4.43-5.28,3.35-10.36,6.58-15.75,10.01-1.03-1.77-1.81-3.11-2.69-4.61Z"/>
      <path d="M33.29,559.77c5.88-2.6,11.16-4.93,16.89-7.46,.76,1.6,1.42,2.96,2.27,4.75-5.82,2.6-11.2,5-16.85,7.52-.8-1.67-1.42-2.95-2.31-4.8Z"/>
      <path d="M54.19,560.7c.81,1.85,1.38,3.16,2.13,4.88-5.6,2.66-10.92,5.18-16.56,7.85-.82-1.63-1.45-2.88-2.34-4.67,5.59-2.69,10.87-5.23,16.77-8.06Z"/>
      <path d="M48.73,590.92c-.93-1.51-1.69-2.75-2.77-4.5,5.49-2.95,10.79-5.81,16.31-8.78,.96,1.51,1.73,2.72,2.84,4.47-5.53,2.98-10.86,5.84-16.38,8.82Z"/>
      <path d="M746.7,599.5c-5.51-3.12-10.64-6.02-16.02-9.08,.86-1.63,1.52-2.89,2.46-4.65,5.39,3.04,10.51,5.93,16.12,9.09-.86,1.57-1.59,2.9-2.55,4.65Z"/>
      <path d="M744.39,603.4c-.98,1.68-1.76,3.03-2.65,4.56-5.44-3.25-10.52-6.29-15.92-9.52,.96-1.61,1.76-2.96,2.71-4.56,5.37,3.22,10.44,6.26,15.86,9.51Z"/>
      <path d="M744.48,196.88c-5.54,3.31-10.49,6.27-15.7,9.38-1.04-1.36-1.91-2.49-3.21-4.2,5.46-3.28,10.63-6.39,16.04-9.64,.99,1.53,1.76,2.74,2.87,4.46Z"/>
      <path d="M720.77,606.34c1.15-1.73,1.96-2.93,2.95-4.42,5.17,3.28,10.17,6.44,15.54,9.84-.94,1.55-1.75,2.89-2.74,4.53-5.32-3.36-10.32-6.52-15.75-9.95Z"/>
      <path d="M163.44,698.98c1.48,1.31,2.57,2.26,3.95,3.48-3.8,4.89-7.43,9.56-11.29,14.52-1.49-1.14-2.73-2.1-4.21-3.24,3.86-4.93,7.51-9.6,11.56-14.77Z"/>
      <path d="M142.01,119.43c-4.24-4.65-8.2-9-12.45-13.66,1.37-1.31,2.5-2.39,3.84-3.66,4.21,4.64,8.18,9.02,12.43,13.72-1.29,1.22-2.41,2.28-3.81,3.61Z"/>
      <path d="M25.11,472.01c1.59,3.52,1.45,5.44-2.54,5.97-4.57,.6-9.07,1.74-13.97,2.73-.45-1.58-.87-3.07-1.44-5.04,6.13-1.25,11.89-2.42,17.95-3.65Z"/>
      <path d="M40.02,526.09c.72,1.84,1.19,3.06,1.93,4.95-5.78,2.08-11.45,4.11-17.41,6.25-.69-1.71-1.23-3.03-1.97-4.84,5.87-2.14,11.4-4.16,17.44-6.36Z"/>
      <path d="M417.16,1.15h4.52c0,5.27,.15,10.35-.05,15.41-.14,3.61-2.46,3.22-5.48,1.87,.32-5.45,.65-11.14,1.01-17.28Z"/>
      <path d="M355.98,21.47c-2.05,.17-3.47,.29-5.24,.44-.63-5.24-1.38-10.13-1.69-15.06-.07-1.17,1.34-2.43,2.07-3.65,.98,.97,2.62,1.82,2.82,2.93,.88,4.87,1.35,9.81,2.04,15.35Z"/>
      <path d="M21.17,528.1c-.6-1.85-1.04-3.21-1.63-5.04,5.88-1.94,11.48-3.78,17.38-5.72,.66,1.65,1.18,2.97,1.94,4.89-5.85,1.94-11.45,3.81-17.7,5.88Z"/>
      <path d="M33.35,295.98c-.77,2.07-1.27,3.41-1.86,5-5.94-1.67-11.6-3.27-17.58-4.96,.54-1.84,.94-3.2,1.47-4.96,5.91,1.62,11.57,3.17,17.97,4.93Z"/>
      <path d="M476.95,26.8c-1.88-.49-3.24-.84-4.98-1.29,1.14-5.9,2.23-11.52,3.4-17.59,1.72,.17,3.24,.32,5.27,.51-1.28,6.36-2.46,12.24-3.7,18.37Z"/>
      <path d="M786.32,296.02c-6.36,1.78-11.9,3.32-17.7,4.94-.61-1.56-1.14-2.9-1.94-4.95,6-1.67,11.66-3.24,17.81-4.96,.56,1.51,1.09,2.94,1.83,4.96Z"/>
      <path d="M30.72,304.98c-.45,1.83-.8,3.21-1.26,5.07-6-1.49-11.74-2.92-17.79-4.42,.29-1.64,.53-3.03,.9-5.13,6.16,1.52,12.02,2.97,18.14,4.48Z"/>
      <path d="M272.07,21.51c1.78-.63,3.13-1.1,5.01-1.76,1.97,5.9,3.83,11.49,5.79,17.36-1.57,.66-2.88,1.22-4.81,2.03-1.98-5.84-3.88-11.43-5.99-17.63Z"/>
      <path d="M517.14,37.27c2.03-6.05,3.85-11.51,5.83-17.44,1.78,.55,3.25,1.01,4.99,1.55-2,6.01-3.87,11.61-5.83,17.51-1.74-.57-3.08-1-4.99-1.62Z"/>
      <path d="M274.08,40.32c-1.79,.65-3.02,1.1-4.9,1.78-2.12-5.8-4.2-11.47-6.37-17.39,1.73-.68,3.08-1.21,4.92-1.93,2.11,5.84,4.13,11.41,6.35,17.54Z"/>
      <path d="M537.18,24.73c-2.06,5.8-4.05,11.38-6.19,17.39-1.81-.71-3.23-1.27-4.93-1.94,2.17-6,4.19-11.57,6.29-17.4,1.78,.72,3.12,1.26,4.82,1.94Z"/>
      <path d="M717.08,644.13c-1.34,1.55-2.3,2.66-3.46,4.01-4.88-3.8-9.57-7.44-14.55-11.31,1.13-1.42,2.1-2.63,3.29-4.12,4.94,3.84,9.63,7.47,14.72,11.43Z"/>
      <path d="M559.7,33.69c1.71,.73,3.01,1.28,4.76,2.03-2.48,5.65-4.84,11.03-7.37,16.79-1.62-.6-3.06-1.14-4.96-1.85,2.56-5.74,4.99-11.2,7.56-16.98Z"/>
      <path d="M234.58,56.59c-2.72-5.77-5.17-10.96-7.82-16.57,1.59-.84,2.95-1.56,4.65-2.45,2.74,5.77,5.26,11.09,7.92,16.69-1.65,.81-2.92,1.44-4.74,2.34Z"/>
      <path d="M569.09,58.47c2.86-5.65,5.55-10.93,8.36-16.47,1.54,.67,2.84,1.23,4.71,2.04-2.69,5.49-5.27,10.75-8.16,16.65-1.62-.74-3.11-1.41-4.9-2.22Z"/>
      <path d="M97.73,632.69c1.26,1.51,2.09,2.52,3.33,4.01-4.84,3.81-9.58,7.56-14.62,11.53-1.16-1.41-2.16-2.63-3.39-4.12,4.95-3.85,9.64-7.5,14.68-11.42Z"/>
      <path d="M629.32,95.53c-1.7-1.27-2.84-2.13-4.24-3.17,3.66-4.94,7.18-9.68,10.95-14.77,1.54,1.03,2.81,1.88,4.42,2.95-3.77,5.08-7.29,9.82-11.13,14.99Z"/>
      <path d="M153.04,109.75c-1.53,1.28-2.63,2.21-4.07,3.42-4.04-4.64-7.92-9.1-12.08-13.88,1.28-1.19,2.42-2.26,3.87-3.61,4.14,4.74,8.03,9.2,12.28,14.07Z"/>
      <path d="M791.52,319.7c.55,1.8,.92,3.03,1.5,4.92-6.17,1.25-12.08,2.45-17.93,3.63-2.03-3.46-1.31-5.26,2.29-5.89,4.56-.8,9.11-1.71,14.14-2.67Z"/>
      <path d="M119.22,142.04c-1.24,1.47-2.18,2.57-3.43,4.05-4.68-4.19-9.19-8.23-13.87-12.42,1.18-1.33,2.14-2.42,3.49-3.94,4.55,4.06,8.94,7.98,13.8,12.32Z"/>
      <path d="M778.79,356.15c-.2-2.06-.33-3.33-.51-5.24,6.04-.74,11.88-1.46,18.1-2.23,.3,1.75,.54,3.13,.87,5.06-6.19,.81-12.05,1.57-18.46,2.41Z"/>
      <path d="M707.44,144.5c1.32,1.51,2.27,2.61,3.51,4.03-4.76,3.9-9.34,7.65-14.25,11.67-1.22-1.29-2.3-2.43-3.63-3.83,4.74-3.91,9.32-7.69,14.37-11.86Z"/>
      <path d="M97.74,167.6c-4.99-3.85-9.66-7.45-14.61-11.26,1.08-1.44,2.03-2.71,3.2-4.27,4.96,3.86,9.62,7.5,14.64,11.41-1.08,1.38-2.02,2.58-3.23,4.12Z"/>
      <path d="M324.65,792.92c-1.9-.49-3.29-.85-5.07-1.3,.9-4.84,1.72-9.51,2.64-14.16,.76-3.81,.97-3.87,5.85-2.48-1.1,5.74-2.2,11.53-3.43,17.94Z"/>
      <path d="M1.45,426.89c5.92-.4,11.76-.79,17.61-1.18,1.48,3.67,.86,5.37-2.97,5.43-3.62,.05-7.24,.36-10.84,.77-3.25,.37-4.74-.68-3.8-5.01Z"/>
      <path d="M43.26,534.87c.7,1.85,1.2,3.2,1.87,4.98-5.79,2.24-11.3,4.37-17.07,6.6-.8-1.73-1.4-3.01-2.21-4.75,5.82-2.28,11.32-4.44,17.4-6.83Z"/>
      <path d="M22.47,453.53c.21,1.9,.36,3.31,.57,5.16-5.03,.75-9.89,1.4-14.72,2.22-3.53,.6-4.51-.96-3.81-4.71,5.75-.86,11.68-1.74,17.97-2.67Z"/>
      <path d="M796.59,451.63c-5.13-.59-9.87-1.24-14.63-1.65-3.85-.33-4.39-2.17-2.7-5.69,5.79,.72,11.63,1.45,17.87,2.22-.2,1.88-.36,3.44-.53,5.12Z"/>
      <path d="M31.59,555.62c-.74-1.89-1.25-3.2-1.92-4.91,5.76-2.39,11.17-4.64,16.86-7,.79,1.65,1.4,2.93,2.25,4.7-5.67,2.38-11.08,4.65-17.19,7.21Z"/>
      <path d="M783.33,513.64c-.46,1.88-.76,3.12-1.22,5.03-6.01-1.77-11.77-3.47-17.88-5.28,.51-1.72,.92-3.07,1.51-5.05,5.84,1.76,11.46,3.45,17.59,5.3Z"/>
      <path d="M67.01,585.7c.94,1.91,1.56,3.2,2.31,4.74-5.29,3.02-10.3,5.88-15.76,9-.97-1.48-1.8-2.75-2.91-4.43,5.54-3.15,10.67-6.07,16.35-9.3Z"/>
      <path d="M267.72,777.6c-1.93-.81-3.24-1.35-4.85-2.02,2.1-5.83,4.08-11.36,6.2-17.26,1.79,.63,3.23,1.13,4.98,1.74-2.13,5.89-4.12,11.42-6.33,17.54Z"/>
      <path d="M260.39,754.76c1.82,.85,3.11,1.46,4.78,2.24-2.24,5.79-4.37,11.3-6.61,17.1-1.69-.65-3.03-1.16-4.88-1.86,2.21-5.76,4.33-11.29,6.71-17.48Z"/>
      <path d="M451.54,796.74c-2.09,.12-3.37,.19-5.09,.29-.78-6.01-1.54-11.83-2.37-18.19,1.77-.19,3.29-.35,5.23-.55,.76,6.29,1.46,12.12,2.23,18.46Z"/>
      <path d="M751.36,548.48c.79-1.77,1.38-3.06,2.15-4.78,5.68,2.35,11.1,4.59,16.47,6.82-.07,4.32-1.7,5.26-5.29,3.58-4.16-1.94-8.47-3.59-13.32-5.63Z"/>
      <path d="M368.08,798.24c.44-5.89,.88-11.75,1.34-17.78h4.95c-.25,5.3-.45,10.34-.74,15.38-.22,3.81-2.46,3.56-5.56,2.4Z"/>
      <path d="M560.63,745.91c1.98-.85,3.29-1.41,4.9-2.1,2.66,5.6,5.18,10.92,7.85,16.56-1.65,.79-2.92,1.4-4.69,2.25-2.69-5.57-5.24-10.84-8.07-16.71Z"/>
      <path d="M2.59,441.96c-1.25-4.16-.21-5.72,3.49-5.76,3.29-.03,6.59-.58,9.86-1.02,3.28-.44,5.18,.49,4.51,4.94-5.72,.59-11.7,1.2-17.87,1.83Z"/>
      <path d="M425.73,780.39h4.92c.46,6.02,.9,11.9,1.34,17.68-3.9,1.99-5.35,.39-5.57-2.89-.32-4.76-.46-9.53-.7-14.79Z"/>
      <path d="M226.21,739.58c1.88,.91,3.06,1.48,4.69,2.28-2.7,5.43-5.32,10.72-8.17,16.46-1.69-.72-3.1-1.32-4.91-2.1,2.85-5.66,5.52-10.93,8.4-16.63Z"/>
      <path d="M32.76,504.5c-5.69,1.57-11.23,3.1-17.07,4.71-.63-1.51-1.17-2.8-1.73-4.14,.57-.47,.87-.91,1.27-1.03,4.26-1.28,8.55-2.44,12.79-3.79,3.47-1.1,4.95,.1,4.75,4.24Z"/>
      <path d="M594.9,749.42c-3.19-5.63-6.03-10.66-9.11-16.11,1.49-.91,2.81-1.71,4.53-2.75,3.12,5.51,6.03,10.64,9.09,16.04-1.57,.98-2.78,1.73-4.5,2.81Z"/>
      <path d="M205.22,749.41c-1.75-1.09-2.96-1.84-4.5-2.79,3.04-5.39,5.93-10.53,8.98-15.95,1.65,.88,2.89,1.54,4.68,2.49-3.05,5.42-5.94,10.55-9.15,16.25Z"/>
      <path d="M601.81,723.67c1.7-1.06,2.92-1.82,4.47-2.79,3.33,5.21,6.5,10.18,9.93,15.55-1.48,1-2.75,1.86-4.39,2.97-3.37-5.3-6.54-10.28-10-15.73Z"/>
      <path d="M772.26,253.78c.68,1.91,1.16,3.26,1.76,4.95-5.65,2.21-11.03,4.31-16.9,6.6-.77-1.52-1.46-2.89-2.38-4.73,5.92-2.3,11.43-4.45,17.52-6.82Z"/>
      <path d="M45.9,213.96c1.07-1.71,1.76-2.82,2.8-4.48,5.42,2.87,10.73,5.69,16.26,8.61-.87,1.6-1.55,2.86-2.53,4.66-5.49-2.92-10.79-5.75-16.53-8.8Z"/>
      <path d="M751.41,209.41c1.02,1.77,1.73,3,2.64,4.59-5.47,2.92-10.66,5.7-16.22,8.68-.94-1.51-1.77-2.83-2.82-4.5,5.46-2.92,10.66-5.7,16.39-8.76Z"/>
      <path d="M760.2,274.17c-.73-1.69-1.29-3-2.07-4.8,5.86-2.14,11.51-4.2,17.42-6.36,.69,1.65,1.24,2.98,2.05,4.9-5.87,2.11-11.51,4.14-17.4,6.26Z"/>
      <path d="M60.68,226.4c-1.04,1.89-1.73,3.14-2.58,4.68-5.47-2.76-10.71-5.41-16.23-8.19,.66-1.64,1.18-2.95,1.93-4.84,5.63,2.79,10.99,5.44,16.88,8.36Z"/>
      <path d="M780.71,430.87c-1.13-3.7-.27-5.31,3.27-5.01,4.89,.42,9.78,.75,14.77,1.13v5.06c-6.11-.4-11.95-.78-18.04-1.17Z"/>
      <path d="M38.75,278.07c-.59,1.87-.99,3.12-1.58,4.97-5.92-1.93-11.63-3.79-17.64-5.76,.58-1.81,1.01-3.16,1.6-5,5.92,1.94,11.54,3.79,17.62,5.78Z"/>
      <path d="M35.82,286.99c-.54,1.79-.94,3.14-1.49,4.96-5.23-1.55-10.28-2.91-15.21-4.63-.9-.31-1.28-2.09-1.91-3.19,1.09-.62,2.37-1.95,3.24-1.73,5.08,1.29,10.06,2.96,15.36,4.58Z"/>
      <path d="M765.74,292.02c-.56-1.86-.97-3.22-1.51-5.01,5.28-1.63,10.27-3.3,15.34-4.61,.88-.23,2.16,1.09,3.26,1.7-.62,1.1-1,2.88-1.9,3.2-4.8,1.71-9.73,3.06-15.19,4.71Z"/>
      <path d="M356.2,777.49c-.87,6.74-1.65,11.32-1.98,15.92-.25,3.47-1.68,4.34-5.48,2.82,.56-5.16,.92-10.56,1.93-15.84,.2-1.04,2.93-1.6,5.53-2.91Z"/>
      <path d="M467.79,24.61c-4.22,.56-5.3-1.07-4.56-4.55,.79-3.72,1.13-7.55,2.12-11.21,.3-1.1,2.08-1.8,3.19-2.69,.67,1.21,2.03,2.51,1.89,3.61-.63,4.9-1.69,9.75-2.64,14.84Z"/>
      <path d="M490.13,11.01c-1.35,5.93-2.66,11.67-4.04,17.72-1.83-.42-3.21-.73-5.01-1.15,1.09-4.99,2.25-9.76,3.14-14.58,.66-3.59,2.51-3.79,5.91-2Z"/>
      <path d="M504.25,13.98c1.95,.66,3.17,1.07,4.9,1.65-1.61,5.89-3.16,11.55-4.84,17.66-1.84-.49-3.34-.88-5.11-1.35,1.71-6.1,3.31-11.78,5.04-17.96Z"/>
      <path d="M265.28,43.54c-1.89,.66-3.23,1.13-4.96,1.74-2.22-5.69-4.31-11.06-6.6-16.94,1.54-.74,2.94-1.41,4.76-2.28,2.27,5.83,4.41,11.34,6.8,17.49Z"/>
      <path d="M598.4,74.46c-1.63-.96-2.99-1.76-4.57-2.69,3.26-5.41,6.3-10.48,9.54-15.86,1.58,.94,2.93,1.73,4.55,2.69-3.23,5.38-6.28,10.45-9.53,15.86Z"/>
      <path d="M684.29,146.19c-1.22-1.25-2.24-2.3-3.7-3.8,4.8-4.35,9.28-8.4,14.19-12.84,1.24,1.25,2.26,2.29,3.74,3.79-4.91,4.43-9.39,8.48-14.23,12.86Z"/>
      <path d="M485.16,791.04c-1.44-6.39-2.74-12.13-4.11-18.23,1.72-.38,3.1-.69,5.04-1.12,1.38,5.97,2.7,11.67,4.1,17.67-1.65,.55-3,1-5.02,1.68Z"/>
      <path d="M513.53,783.17c-1.78-5.83-3.46-11.32-5.27-17.27,1.69-.56,3.14-1.04,4.96-1.64,1.61,5.19,3.12,10.04,4.62,14.89,1.1,3.56-1.25,3.75-4.3,4.02Z"/>
      <path d="M3.44,451.73c-.16-1.9-.27-3.32-.43-5.2,6.06-.76,11.88-1.49,18.13-2.27,.25,1.73,.45,3.1,.74,5.08-6.12,.79-11.94,1.55-18.44,2.39Z"/>
      <path d="M559.73,766.81c-2.7-6.11-5.04-11.38-7.49-16.94,1.59-.77,2.87-1.4,4.7-2.29,2.55,5.67,4.96,11.05,7.57,16.86-1.69,.83-3.07,1.52-4.78,2.36Z"/>
      <path d="M779.37,440.19c.25-2.01,.42-3.28,.65-5.14,5.98,.54,11.79,1.06,17.71,1.6v5.25c-6.12-.57-11.95-1.11-18.36-1.71Z"/>
      <path d="M569.15,741.99c1.7-.9,2.97-1.56,4.74-2.49,2.79,5.56,5.44,10.84,8.27,16.49-1.6,.85-2.96,1.58-4.65,2.48-2.82-5.56-5.44-10.72-8.36-16.47Z"/>
      <path d="M624.4,731.09c-1.6,1.1-2.78,1.91-4.32,2.97-3.43-5.06-6.74-9.94-10.29-15.18,1.38-1.08,2.59-2.02,4.24-3.31,3.5,5.24,6.77,10.13,10.37,15.53Z"/>
      <path d="M728.65,628.23c-1.31,1.65-2.19,2.77-3.32,4.19-5.05-3.57-9.87-6.97-14.93-10.53,1.05-1.52,1.85-2.69,2.99-4.34,5.05,3.54,9.87,6.9,15.26,10.68Z"/>
      <path d="M598.36,725.85c3.25,5.38,6.31,10.47,9.56,15.85-1.49,.9-2.85,1.73-4.55,2.76-3.24-5.41-6.28-10.49-9.51-15.87,1.58-.96,2.93-1.78,4.51-2.74Z"/>
      <path d="M741.99,231.08c-.83-1.61-1.49-2.88-2.37-4.59,5.48-2.84,10.71-5.55,16.34-8.47,.85,1.63,1.56,3.01,2.45,4.74-5.54,2.81-10.69,5.42-16.42,8.32Z"/>
      <path d="M55.63,196.87c1.01-1.65,1.75-2.88,2.75-4.51,5.32,3.2,10.39,6.24,15.74,9.46-.79,1.5-1.45,2.75-2.46,4.67-5.45-3.27-10.61-6.37-16.03-9.62Z"/>
      <path d="M766.83,504.38c.63-1.94,1.07-3.3,1.63-5.02,5.92,1.64,11.6,3.21,17.65,4.88-.47,1.74-.84,3.09-1.35,4.99-5.97-1.62-11.65-3.15-17.93-4.85Z"/>
      <path d="M747.6,557.15c.89-1.88,1.48-3.13,2.26-4.79,5.71,2.49,11.1,4.84,16.79,7.32-.67,1.62-1.2,2.93-2,4.87-5.67-2.46-11.03-4.8-17.05-7.41Z"/>
      <path d="M617.49,713.45c1.56-1.1,2.72-1.92,4.35-3.07,3.58,5.06,6.97,9.86,10.55,14.94-1.36,1.14-2.45,2.04-4.07,3.4-3.69-5.2-7.17-10.1-10.83-15.26Z"/>
      <path d="M743.92,234.67c5.48-2.6,10.71-5.08,16.35-7.76,.83,1.51,1.58,2.89,2.52,4.61-4.57,2.19-8.87,4.29-13.2,6.32-3.68,1.72-3.69,1.69-5.67-3.17Z"/>
      <path d="M775.65,537.33c-6.06-2.17-11.49-4.12-17.31-6.21,.58-1.76,1.06-3.21,1.66-5.02,5.97,2.14,11.52,4.14,17.41,6.25-.62,1.75-1.09,3.09-1.75,4.97Z"/>
      <path d="M7.12,324.77c.54-2.05,.87-3.29,1.37-5.15,5.31,1.08,10.51,1.94,15.57,3.34,1.08,.3,1.6,2.57,2.38,3.93l-1.13,1.29c-5.9-1.11-11.8-2.22-18.19-3.41Z"/>
      <path d="M441.91,797.75h-5.35c-.54-5.72-1.08-11.43-1.65-17.48,1.63-.37,3-.67,4.97-1.12,.68,6.21,1.32,12.1,2.03,18.6Z"/>
      <path d="M773.45,481.27c5.74,1.31,11.48,2.63,17.49,4-.52,1.8-.92,3.17-1.44,4.94-5.4-1.18-10.59-2.08-15.58-3.6-1.05-.32-1.4-2.9-2.08-4.44l1.61-.9Z"/>
      <path d="M34.13,508.42c.64,1.76,1.12,3.07,1.78,4.86-5.93,1.82-11.54,3.54-17.64,5.42-.55-1.66-1.03-3.11-1.66-5,6.05-1.82,11.65-3.51,17.52-5.28Z"/>
      <path d="M251.57,751.57c1.67,.61,3.01,1.09,4.96,1.8-2.38,5.77-4.63,11.21-7.02,17.01-1.67-.61-2.99-1.1-4.9-1.8,2.36-5.77,4.59-11.21,6.97-17.01Z"/>
      <path d="M555.51,768.49c-1.9,.74-3.22,1.26-4.88,1.9-2.37-5.65-4.59-10.97-7.03-16.78,1.66-.77,3.04-1.42,4.79-2.23,2.41,5.78,4.62,11.11,7.12,17.11Z"/>
      <path d="M286.64,782.89c-3.69,.28-5.49-.59-4.21-4.42,1.51-4.51,2.84-9.08,4.38-14.06,1.67,.44,3.14,.83,5.02,1.32-1.8,5.97-3.5,11.58-5.18,17.16Z"/>
      <path d="M334.23,794.51c-1.93-.37-3.31-.63-5.16-.98,1.08-6.04,2.13-11.84,3.24-18.07,1.78,.33,3.14,.58,5.06,.93-1.07,6.16-2.08,11.96-3.15,18.11Z"/>
      <path d="M384.05,18.61c-1.67,.36-3.04,.65-5.16,1.1-.37-6.25-.71-12.1-1.08-18.36,1.76-.15,3.12-.27,5.03-.44,.42,6.07,.81,11.77,1.21,17.7Z"/>
      <path d="M363.52,797.99c-1.91-.09-3.34-.15-5.25-.24,.63-6.23,1.23-12.18,1.87-18.43,1.83,.26,3.22,.45,5.01,.7-.54,5.97-1.06,11.67-1.63,17.97Z"/>
      <path d="M458.67,23.25c-1.88-.24-3.3-.43-5.21-.67,.91-6.15,1.78-11.98,2.71-18.24,1.72,.3,3.1,.54,5.04,.88-.83,5.89-1.63,11.59-2.54,18.03Z"/>
      <path d="M20.93,360.19c-.42,1.97-.69,3.25-1.08,5.09-5.79-.55-11.49-1.08-17.5-1.65-.11-1.65-.21-3.06-.36-5.16,6.38,.58,12.36,1.12,18.94,1.72Z"/>
      <path d="M715.68,614.23c1.1-1.68,1.89-2.88,2.91-4.43,5.14,3.4,10.07,6.66,15.36,10.16-.86,1.45-1.65,2.78-2.72,4.58-5.22-3.46-10.14-6.72-15.56-10.31Z"/>
      <path d="M797.76,358.37v5.21c-5.84,.58-11.56,1.15-17.55,1.74-.34-1.8-.6-3.2-.95-5.04,6.17-.64,12.06-1.25,18.5-1.92Z"/>
      <path d="M131.66,670.99c-4.49,4.79-8.45,9.01-12.63,13.46-1.17-1.09-2.2-2.05-3.45-3.22,4.63-4.21,9.02-8.19,13.73-12.48,.4,.38,1.54,1.46,2.35,2.23Z"/>
      <path d="M684.5,681.44c-1.19,1.08-2.14,1.95-3.03,2.75-4.24-4.5-8.28-8.81-12.68-13.48,.27-.3,1.32-1.46,2.39-2.65,4.41,4.44,8.6,8.64,13.32,13.39Z"/>
      <path class="cls-1" d="M397.2,438.87v48.01h34.21c.12,2.6,.29,4.55,.29,6.51,.03,10-.16,20,.09,30,.1,4.1-1.11,5.46-5.32,5.41-17.16-.21-34.33-.09-51.5-.09-22.5,0-45,0-67.5,0-1.97,0-3.94,0-6.29,0v-41.57h30.92v-163.99h-30.85v-41.87c1.87,0,3.81,0,5.75,0,42.5,0,85-.18,127.5,.08,21.24,.13,41.87,3.67,59.95,15.81,20.17,13.54,30.54,32.68,31.87,56.99,.84,15.27-1.51,29.75-8.45,43.42-11.8,23.27-31.71,35.33-56.69,38.38-18.59,2.27-37.48,2.05-56.24,2.9-2.45,.11-4.91,.02-7.75,.02Zm.19-116.3v75.1c13.17,.15,25.87-.13,38.39-3.41,10.08-2.64,16.59-9.06,19.98-18.56,3.81-10.69,3.93-21.65-.4-32.21-4.39-10.72-12-18.1-24.11-19.08-11.09-.9-22.22-1.23-33.86-1.83Z"/>
      <path class="cls-1" d="M170.57,177.9c13.24,13.31,26.48,26.62,40.08,40.29-50.4,51.96-77.31,114.91-77.28,188.08,.03,73.01,26.83,135.84,77.22,187.82-13.56,13.57-26.94,26.95-40.32,40.33-128.52-126.04-123.61-336.91,.3-456.52Z"/>
      <path class="cls-1" d="M587.42,594.07c99.46-99.13,106.49-269.52-1.24-377.17,13.48-13.24,26.95-26.48,40.42-39.71,121.82,116.27,132.25,327.89,1.08,457.29-13.35-13.4-26.69-26.79-40.25-40.41Z"/>
      <path class="cls-1" d="M327.68,150.17c-4.54,1.08-8.68,2.06-13.75,3.27-4.87-20.95-9.68-41.68-14.66-63.11,11.47-2.48,22.21-5.48,33.15-6.98,10.37-1.42,17.45,3.54,20.78,12.55,3.63,9.82,1.38,18.13-6.63,24.5-.5,.4-.98,.83-1.89,1.61,6.95,6.32,13.75,12.5,21.27,19.34-5.23,1.19-9.34,2.33-13.53,2.98-1.34,.21-3.19-.5-4.28-1.42-5.2-4.41-10.22-9.04-15.31-13.59q-4.02-3.59-10.01-1.16c1.57,7.11,3.16,14.32,4.85,22.01Zm-12.01-52.29c1.64,6.88,3.05,12.8,4.56,19.12,5.41-1.47,10.46-2.48,15.24-4.23,4.6-1.68,6.26-5.74,5.12-10.57-1.21-5.13-4.04-7.68-9.15-7.16-5.06,.51-10.04,1.77-15.77,2.84Z"/>
      <path class="cls-1" d="M339.04,658.76c18.2,.17,32.27,14.62,32.14,33.02-.13,18.07-14.74,32.28-33.07,32.17-18.01-.11-32.29-14.82-32.15-33.1,.15-18.08,14.76-32.26,33.08-32.1Zm-.53,51.8c10.48-.1,19.49-9.34,19.21-19.68-.28-10.25-8.92-18.82-18.96-18.83-10.54,0-19.61,9-19.48,19.38,.12,10.26,9.14,19.23,19.23,19.14Z"/>
      <path class="cls-1" d="M273.36,705.5c-4.24-2.23-7.88-4.14-12.09-6.35,4.06-7.86,7.99-15.47,12.26-23.75-8.48-4.49-16.78-8.87-25.58-13.53-4.17,7.85-8.27,15.55-12.58,23.68-4.05-2.1-7.82-4.05-12.04-6.24,9.83-18.75,19.46-37.11,29.36-55.99,4.06,2.07,7.82,3.99,12.06,6.15-3.51,6.82-6.83,13.28-10.44,20.3,8.48,4.47,16.8,8.86,25.56,13.48,3.57-6.64,7-13.02,10.73-19.94,3.99,2.08,7.73,4.04,12.05,6.29-9.77,18.66-19.39,37.01-29.28,55.9Z"/>
      <path class="cls-1" d="M419.71,114.9c-8.33,0-16.14,.26-23.93-.1-4.6-.21-6.41,1.21-5.81,5.85,.3,2.27,.05,4.61,.05,7.68h35.89v11.91h-49.17V75.88h46.9v11.82h-32.75v14.61h28.81v12.6Z"/>
      <path class="cls-1" d="M544.22,130.32c1.49-8.92-4.72-16.3-13.15-15.65-2.2,.17-5.1,2.13-6.07,4.07-.77,1.54,.25,4.97,1.66,6.41,4.18,4.26,8.93,7.96,13.47,11.86,9.81,8.41,11.62,18.22,4.88,27.14-5.53,7.31-13.24,8.41-21.5,6.79-8.17-1.61-15.33-5.44-21.03-11.67-6.34-6.94-7.54-15.64-3-23.88,3.79,1.77,7.61,3.56,11.34,5.31-1.04,11.42,5.61,19.38,16.14,19.07,2.27-.07,5.41-1.59,6.44-3.41,1.01-1.77,.45-5.09-.57-7.17-1.1-2.26-3.44-3.99-5.39-5.77-3.93-3.59-8.19-6.84-11.89-10.64-4.96-5.1-7.19-11.15-4.27-18.22,2.97-7.2,8.58-11.06,16.19-11.34,11.22-.41,20.43,4.24,27.32,12.95,4.6,5.81,5.02,12.44,1.58,19.86-4.06-1.9-8.02-3.76-12.16-5.7Z"/>
      <path class="cls-1" d="M437.63,120.31c2.37,.5,4.44,1.1,6.55,1.34,3.99,.44,6.1,1.56,6.64,6.49,.88,8.14,15.61,13.47,22.34,8.72,3.54-2.5,3.98-7.2,.49-10.29-2.45-2.16-5.5-3.69-8.37-5.34-3.89-2.24-8-4.11-11.77-6.54-7.47-4.81-10.21-10.98-8.61-18.43,1.59-7.37,7.54-12.96,15.6-14.22,9.3-1.45,17.92,.68,25.55,6.11,6.9,4.91,9.28,11.92,7.01,20.08-3.64-.76-7.39-1.34-10.98-2.43-.95-.29-1.81-2.11-2.02-3.35-1.21-7.08-11.67-12.24-17.95-8.73-4.12,2.3-4.71,7.59-.78,10.18,4.43,2.92,9.24,5.25,13.89,7.85,2.32,1.3,4.76,2.43,6.9,3.97,6.95,5.03,9.66,11.8,7.65,19.05-2.27,8.19-7.73,13.19-16.09,14.4-9.14,1.33-17.9-.23-25.94-5.03-8.9-5.33-12.64-13.79-10.09-23.84Z"/>
      <path class="cls-1" d="M492.97,676.14c1.17,4.1,2.2,7.7,3.37,11.8-9.21,2.65-18.09,5.21-27.53,7.92,1.12,4.18,2.18,8.1,3.41,12.66,11.44-3.16,22.57-6.23,34.26-9.45,1.07,3.7,2.05,7.12,3.23,11.22-15.87,4.48-31.28,8.83-47.28,13.34-5.78-20.53-11.42-40.58-17.16-60.94,14.17-4.02,27.72-7.94,41.34-11.58,1.03-.27,3.19,1.11,3.76,2.25,1.15,2.31,1.56,4.99,2.43,8.05-10.47,3.01-20.61,5.94-31.19,8.98,1.3,4.71,2.47,8.97,3.71,13.44,9.24-2.57,18.03-5.01,27.66-7.69Z"/>
      <path class="cls-1" d="M272.1,172.9c-4.43,2.21-8.39,4.19-12.78,6.39-9.65-19.29-19.14-38.27-28.96-57.91,10.88-5.18,21.1-10.81,31.89-14.94,9.49-3.63,18.56,1.05,23.36,10.3,4.94,9.5,3.16,19.13-5.2,25.41-3.55,2.67-7.75,4.48-11.69,6.62-2.16,1.18-4.38,2.24-6.86,3.49,1.82,3.64,3.45,6.88,5.06,10.13,1.62,3.27,3.23,6.55,5.18,10.5Zm-23.93-47.84c3.2,6.26,5.95,11.64,8.88,17.36,4.92-2.71,9.44-4.84,13.56-7.57,4.42-2.93,5.13-7.05,2.7-11.75-2.27-4.41-6.11-6.33-10.77-4.61-4.77,1.76-9.28,4.21-14.37,6.57Z"/>
      <path class="cls-1" d="M399.49,678.22h-19.58c-.21-3.69-.4-7.22-.63-11.33,10.5-.35,20.6-.68,30.7-1.04,5.98-.22,11.97-.35,17.93-.8,4.09-.31,5.91,1.08,5.44,5.31-.22,1.94-.04,3.92-.04,6.5h-19.01v51.89h-13.08c-.57-16.67-1.14-33.37-1.72-50.52Z"/>
      <path class="cls-1" d="M517.72,636.65c8.49,15.11,16.69,29.7,25.1,44.66,9.52-5.28,18.63-10.33,28.19-15.63,1.87,3.3,3.64,6.44,5.78,10.21-13.42,7.51-26.67,14.92-40.2,22.49-10.31-18.42-20.37-36.39-30.7-54.84,3.91-2.28,7.58-4.41,11.84-6.89Z"/>
      <path class="cls-1" d="M401.02,172.82v26.56c-3.76-3.41-3.7-23.45,0-26.56Z"/>
      <path class="cls-1" d="M401.66,614.57c0,3.48,.08,6.96-.08,10.43-.03,.72-.99,1.4-1.52,2.1-.57-.65-1.62-1.3-1.64-1.96-.12-7.12-.11-14.25,.01-21.37,.01-.62,1.13-1.22,1.73-1.84,.5,.73,1.39,1.44,1.42,2.19,.15,3.47,.07,6.96,.06,10.44Z"/>
      <path class="cls-1" d="M601.01,399.5h25.91c-1.95,2.85-21.09,3.3-25.91,0Z"/>
      <path class="cls-1" d="M599.94,388.97c9.72-.47,18.15-.88,26.57-1.29-3.47,3.83-22.17,4.73-26.57,1.29Z"/>
      <path class="cls-1" d="M198.7,391.67c-8.44-.47-16.88-.93-25.32-1.4,.04-.85,.09-1.7,.13-2.55,8.4,.38,16.8,.75,25.2,1.13,0,.94,0,1.88-.01,2.82Z"/>
      <path class="cls-1" d="M172.56,399.44h25.96c-3.33,3.03-21.95,3.12-25.96,0Z"/>
      <path class="cls-1" d="M526.39,243.98c5.93-7.13,11.29-13.58,17.41-20.94,.23,5.54-12.92,21.15-17.41,20.94Z"/>
      <path class="cls-1" d="M304.83,578.19c-5.07,14.3-9.58,21.44-13.26,21.82,4.26-7.9,7.98-15.45,13.26-21.82Z"/>
      <path class="cls-1" d="M346.2,179.79c2.07,8.15,4.15,16.3,6.45,25.35-4.22-2.4-9.19-21-6.45-25.35Z"/>
      <path class="cls-1" d="M439.74,202.9c-.48-.85-1.5-1.8-1.36-2.53,1.48-7.69,3.14-15.35,4.76-23.02l2.44,.51c-1.55,8.19-3.11,16.38-4.66,24.58-.39,.15-.78,.31-1.18,.46Z"/>
      <path class="cls-1" d="M366.95,624.57c-.81-8.53,.52-16.84,3.49-24.97,.78,8.52-1.12,16.75-3.49,24.97Z"/>
      <path class="cls-1" d="M359.3,203.03c-1.69-8.86-3.24-17.01-4.99-26.2,4.57,3.41,8.19,23.28,4.99,26.2Z"/>
      <path class="cls-1" d="M581.72,312.83c7.57-3.64,15.13-7.28,22.97-11.05-.09,3.7-17.46,12.76-22.4,12.35-.19-.43-.38-.87-.57-1.3Z"/>
      <path class="cls-1" d="M205.29,516.61c6.31-5.67,13.78-9.65,21.6-14.12-.57,3.76-13.63,12.53-21.6,14.12Z"/>
      <path class="cls-1" d="M600.86,505.87c-4.75,1.73-21.92-7.85-22.97-12.29,8.15,4.36,15.56,8.32,22.97,12.29Z"/>
      <path class="cls-1" d="M204.1,352.33c-8.26-1.7-16.47-3.61-24.47-6.23,.21-.8,.43-1.6,.64-2.4,8.16,2.07,16.32,4.13,24.48,6.2-.22,.81-.43,1.62-.65,2.43Z"/>
      <path class="cls-1" d="M544.89,574.87c-3.09,.66-15.12-12.59-17.3-18.52,2.88,0,9.47,7.03,17.3,18.52Z"/>
      <path class="cls-1" d="M450.37,595.38c2.05,8.1,4.09,16.2,6.32,25.02-4.02-2.04-9.14-20.59-6.32-25.02Z"/>
      <path class="cls-1" d="M454.17,178.65c2.41,4.94-2.34,23.74-6.81,26.8,2.37-9.32,4.44-17.47,6.81-26.8Z"/>
      <path class="cls-1" d="M388.75,198.83c-.38-8.43-.77-16.86-1.19-26.18,3.39,3.04,4.73,22.51,2.67,26.08-.49,.03-.99,.06-1.48,.1Z"/>
      <path class="cls-1" d="M609.88,313.74c-4.39,4.08-21.33,10.25-24.61,8.16,8.34-3.43,16.16-6.64,23.98-9.86l.63,1.69Z"/>
      <path class="cls-1" d="M599.51,369.14c8.27-1.19,16.54-2.37,24.81-3.56l.35,2.67c-8.31,1.2-16.62,2.41-24.93,3.61-.08-.91-.15-1.82-.23-2.72Z"/>
      <path class="cls-1" d="M354.44,622.3c1.65-8.2,3.29-16.4,4.94-24.61l2.64,.53c-1.65,8.23-3.3,16.45-4.95,24.68-.88-.2-1.76-.4-2.63-.61Z"/>
      <path class="cls-1" d="M505.75,600.83c-3.93-7.34-7.86-14.69-11.8-22.03,.23-.31,.47-.61,.7-.92,.83,.34,2.11,.44,2.42,1.04,3.58,7.03,8.25,13.57,10.8,21.06l-2.13,.85Z"/>
      <path class="cls-1" d="M239.16,239.7c.81,.05,1.93-.23,2.38,.2,5.35,5.17,10.61,10.42,15.82,15.73,.39,.4,.18,1.39,.25,2.1-.73,0-1.77,.3-2.14-.07-5.7-5.59-11.31-11.27-16.95-16.93,.21-.34,.42-.69,.64-1.03Z"/>
      <path class="cls-1" d="M431,599.39c1.19,8.35,2.39,16.69,3.58,25.04l-2.56,.36c-1.24-8.34-2.48-16.68-3.72-25.02,.9-.13,1.8-.26,2.7-.38Z"/>
      <path class="cls-1" d="M508.43,200.64c-4.32,7.91-8.28,15.18-12.25,22.45-1.39-5.79,8.39-22.52,12.25-22.45Z"/>
      <path class="cls-1" d="M294.2,199.41c4,7.39,8,14.79,12.19,22.53-3.63,0-12.55-14.8-13.77-21.53,.53-.33,1.05-.67,1.58-1Z"/>
      <path class="cls-1" d="M238.9,279.75c-3.37,.61-17.31-8.88-21.54-14.21,2.74-.91,15.04,7.12,21.54,14.21Z"/>
      <path class="cls-1" d="M177.68,355.44c6.07-.82,22.98,3.29,24.88,6.88-8.89-1.79-17.09-3.44-25.29-5.1,.14-.59,.28-1.19,.42-1.78Z"/>
      <path class="cls-1" d="M175.06,432.12c8.71-1.28,16.88-2.48,25.5-3.75-1.89,4.16-22.05,7.15-25.5,3.75Z"/>
      <path class="cls-1" d="M625.25,432.06c-3.58,3.16-22.89,.6-26.54-3.71,9.26,1.29,17.46,2.44,26.54,3.71Z"/>
      <path class="cls-1" d="M512.31,566.29c5.81,7.56,10.37,14.67,14.33,22.16-4.47-1.69-14.71-17.44-14.33-22.16Z"/>
      <path class="cls-1" d="M222.81,496.36c-7.34,3.98-14.69,7.96-22.38,12.13,.15-3.84,16.02-13.18,21.64-13.47,.25,.45,.5,.9,.74,1.35Z"/>
      <path class="cls-1" d="M475.44,185.21c2.22,4.48-4.11,22.84-8.73,24.73,2.79-7.89,5.57-15.78,8.73-24.73Z"/>
      <path class="cls-1" d="M391.46,601.35c-.42,8.42-.83,16.83-1.25,25.25-.43-.03-.86-.05-1.29-.08v-25.25c.85,.03,1.69,.06,2.54,.09Z"/>
      <path class="cls-1" d="M457.32,206.9c2.41-8.07,4.82-16.13,7.46-24.97,2.47,3.85-2.76,22.32-7.46,24.97Z"/>
      <path class="cls-1" d="M485.35,217.49c2.98-7.95,6.56-15.59,10.87-22.88,.7,.34,1.41,.69,2.11,1.03-3.6,7.62-7.2,15.23-10.79,22.85-.73-.33-1.46-.67-2.19-1Z"/>
      <path class="cls-1" d="M604.5,498.41c-7.58-3.59-15.16-7.19-23.17-10.99,3.63-2.12,21.86,6.05,23.17,10.99Z"/>
      <path class="cls-1" d="M588.91,525.87c-2.92,.68-18.09-8.8-21.4-13.37,3.03-.69,18.01,8.67,21.4,13.37Z"/>
      <path class="cls-1" d="M311.49,610.01c3.68-8.69,6.96-16.43,10.63-25.07,1.95,4.87-5.98,23.52-10.63,25.07Z"/>
      <path class="cls-1" d="M190.36,313.47c8.42,1.43,16.12,4.92,23.45,9.45-8.5-1.22-16.03-5.11-23.45-9.45Z"/>
      <path class="cls-1" d="M622.25,445.76c-8.2-1.65-16.4-3.3-24.6-4.95,.17-.87,.34-1.73,.51-2.6,8.21,1.6,16.42,3.2,24.63,4.81-.18,.91-.36,1.83-.54,2.74Z"/>
      <path class="cls-1" d="M609.27,488.23c-7.81-3.2-15.62-6.4-23.94-9.81,3.23-2.16,20.19,4.07,24.54,8.2-.2,.54-.4,1.07-.61,1.61Z"/>
      <path class="cls-1" d="M599.99,292.35c-.6,3.22-14.43,11.5-21.7,13.39,.1-2.75,11.52-9.86,21.7-13.39Z"/>
      <path class="cls-1" d="M233.83,512.86c-7.86,5.22-14.7,10.15-22.27,13.87,2.23-5.08,18.05-15.07,22.27-13.87Z"/>
      <path class="cls-1" d="M222.83,303.89c-4.39,1.94-22.16-7.86-22.86-12.19,7.99,4.26,15.43,8.23,22.86,12.19Z"/>
      <path class="cls-1" d="M622.73,357.25c-8.11,1.64-16.22,3.28-25.21,5.1,.67-1.58,.86-2.91,1.32-3.01,7.82-1.65,15.68-3.16,23.53-4.69,.12,.87,.24,1.73,.36,2.6Z"/>
      <path class="cls-1" d="M204.88,450.48c-8.19,2.05-16.37,4.09-24.56,6.14-.2-.76-.4-1.52-.61-2.28,7.94-2.92,16.22-4.62,24.53-6.24,.21,.8,.43,1.59,.64,2.39Z"/>
      <path class="cls-1" d="M584.23,535.02c-5.59,.47-21.85-11.88-21.95-16.31,7.3,5.43,14.06,10.44,21.95,16.31Z"/>
      <path class="cls-1" d="M238.39,560.03c2.71-2.81,5.13-5.37,7.59-7.87,3.03-3.07,6.06-6.13,9.18-9.1,.45-.43,1.38-.35,2.09-.5,.1,.7,.54,1.76,.24,2.05-5.64,5.55-11.37,11.02-17.1,16.47-.07,.07-.55-.28-2-1.05Z"/>
      <path class="cls-1" d="M561.07,559.99c-5.91-6.01-11.83-12.01-17.74-18.02,6.29,5.56,12.25,11.53,17.74,18.02Z"/>
      <path class="cls-1" d="M486.77,609.74c-4.98-6.88-7.35-15.05-11.12-23.3,3.74,.9,10.48,14.9,11.12,23.3Z"/>
      <path class="cls-1" d="M520.2,561.99c3.9,1.62,15.29,17.39,14.61,22.16-5.73-7.73-10.76-14.51-15.79-21.3,.4-.29,.79-.57,1.19-.86Z"/>
      <path class="cls-1" d="M185.85,475.33c7.92-2.85,15.84-5.69,24.51-8.81-1.57,4.19-19.71,11.02-24.51,8.81Z"/>
      <path class="cls-1" d="M408.46,600.88c3.33,2.01,4.85,19.76,3,25.74l-1.45,.09c-.5-8.43-1.01-16.85-1.55-25.83Z"/>
      <path class="cls-1" d="M202.37,440.81c-8.18,1.65-16.36,3.29-25.28,5.09,2.21-3.79,19.75-7.86,24.93-6.62,.12,.51,.23,1.03,.35,1.54Z"/>
      <path class="cls-1" d="M583.1,266.18c-6.76,5.01-13.51,10.02-20.79,15.42,.04-4.47,16.08-16.67,20.79-15.42Z"/>
      <path class="cls-1" d="M596.32,516.13c-4.83,1.27-21.76-8.75-22.58-13.52,7.23,4.33,14.46,8.66,22.58,13.52Z"/>
      <path class="cls-1" d="M440.64,596.92c1.77,9.13,3.35,17.25,5.04,25.97-4.19-2.22-8.22-22.01-5.04-25.97Z"/>
      <path class="cls-1" d="M520.56,240.04c-.59-5.46,11.46-21.53,16.29-21.92-5.53,7.44-10.58,14.23-16.29,21.92Z"/>
      <path class="cls-1" d="M554.21,271.8c7.4-6.01,13.94-11.33,20.49-16.65l.89,1.16c-1.59,4.19-16.81,16.2-21.38,15.49Z"/>
      <path class="cls-1" d="M263.47,218.48c4.1-.36,16.38,15.4,15.41,20.65-5.05-6.76-10.09-13.52-15.41-20.65Z"/>
      <path class="cls-1" d="M517.76,206.17c-3.98,7.43-8.29,14.68-14.04,21.1,2.83-8.02,7.37-15.1,11.77-22.25,.76,.38,1.51,.77,2.27,1.15Z"/>
      <path class="cls-1" d="M541.83,256.84c5.65-6.29,11.59-12.3,18.63-17.12-5.91,6.02-11.82,12.04-17.73,18.06-.3-.31-.6-.63-.89-.94Z"/>
      <path class="cls-1" d="M222.89,543.65c7.42-6.04,13.94-11.36,21.09-17.17-.26,4.87-15.9,17.75-21.09,17.17Z"/>
      <path class="cls-1" d="M556.1,526.43c7.29,5.96,13.74,11.22,20.41,16.67-3.74,1.69-20.19-11.33-20.41-16.67Z"/>
      <path class="cls-1" d="M601.44,408.74c8.44,.43,16.88,.86,25.32,1.29-.04,.52-.08,1.03-.11,1.55h-25.41c.07-.94,.14-1.89,.21-2.83Z"/>
      <path class="cls-1" d="M263.25,582.26c5.59-7.65,10.51-14.48,16.27-20.64-.21,5.25-11.86,20.21-16.27,20.64Z"/>
      <path class="cls-1" d="M378.82,174.54c1.39,8.25,2.48,16.51,2.34,24.87-.78,.06-1.57,.11-2.35,.17-.73-8.29-1.46-16.58-2.19-24.87,.74-.06,1.47-.11,2.21-.17Z"/>
      <path class="cls-1" d="M200.55,369.18c-3.62,3.1-22.3,.27-25.79-3.75,9.43,1.37,17.61,2.56,25.79,3.75Z"/>
      <path class="cls-1" d="M203.65,284.18c5.21-1.15,22.12,8.9,23.94,14.21-8.34-4.95-15.56-9.23-23.94-14.21Z"/>
      <path class="cls-1" d="M588.76,274.07c-1.52,3.68-17.86,14.36-22.9,13.61,8.04-5.36,15.04-10.01,22.03-14.67l.87,1.06Z"/>
      <path class="cls-1" d="M314.15,582.59c-.39,5.53-8.59,21.48-12.74,22.79,3.97-8.41,7.57-16.01,11.16-23.62,.53,.27,1.06,.55,1.58,.82Z"/>
      <path class="cls-1" d="M496.7,605.36c-4.2-3.81-11.36-20.76-9.3-23.91,3.75,8.05,7.3,15.66,10.84,23.27-.51,.21-1.03,.43-1.54,.64Z"/>
      <path class="cls-1" d="M341.26,592.94c.95,6.05-4.78,22.75-8.43,24.49,2.52-8.76,4.4-17,8.43-24.49Z"/>
      <path class="cls-1" d="M408.47,198.83c.53-8.99,1.02-17.28,1.51-25.58,3.5,5.19,1.9,24.23-1.51,25.58Z"/>
      <path class="cls-1" d="M365.44,176.09c4.04,2.58,6.72,21.96,3.76,25.78-1.34-9.21-2.55-17.5-3.76-25.78Z"/>
      <path class="cls-1" d="M335.19,181.48c2.8,9.39,5.19,17.4,7.95,26.64-4.62-3.01-10.29-21.88-7.95-26.64Z"/>
      <path class="cls-1" d="M321.54,214.44c-3.2-7.79-6.39-15.58-9.59-23.37,.76-.32,1.52-.65,2.28-.97,3.68,7.6,6.93,15.38,9.61,23.42-.77,.31-1.53,.61-2.3,.92Z"/>
      <path class="cls-1" d="M485.61,190.01c2.25,4.27-5.49,22.37-10.1,24.31,3.64-8.75,6.87-16.53,10.1-24.31Z"/>
      <path class="cls-1" d="M284.59,204.95c4.33,7.2,8.66,14.4,12.99,21.61-.77,.46-1.54,.92-2.31,1.38-4.38-7.2-8.76-14.41-13.14-21.61,.82-.46,1.64-.91,2.46-1.37Z"/>
      <path class="cls-1" d="M225.06,254.78c7.09,5.83,13.52,11.12,20.24,16.65-4.07,1.45-20.58-11.87-20.24-16.65Z"/>
      <path class="cls-1" d="M620.43,346.43l-24.51,6.05c-.21-.84-.43-1.68-.64-2.52,8.18-2.09,16.36-4.17,24.54-6.26,.21,.91,.41,1.82,.62,2.73Z"/>
      <path class="cls-1" d="M286.88,233.27c-4.71-6.96-9.42-13.92-14.43-21.34,4.33-.02,15.79,16.34,14.43,21.34Z"/>
      <path class="cls-1" d="M182.45,467.25c2.26-3.75,19.71-9.49,24.82-8.17-7.67,3.69-15.81,5.94-24.82,8.17Z"/>
      <path class="cls-1" d="M527.47,212.07c-4.9,7.29-9.57,14.25-14.6,21.74-1.57-4.57,10.32-22.03,14.6-21.74Z"/>
      <path class="cls-1" d="M256.4,223.16c6.02,7.23,11.37,13.66,17.2,20.66-1.53,.31-2.82,.88-3.07,.59-5.06-6.1-10-12.29-14.94-18.49-.11-.14,.15-.58,.81-2.75Z"/>
      <path class="cls-1" d="M567.83,246.28c.11,4.78-14.74,18.43-20.14,18.29,7.07-6.42,13.31-12.09,20.14-18.29Z"/>
      <path class="cls-1" d="M589.46,330.94c7.94-2.84,15.88-5.67,23.82-8.51,.3,.87,.61,1.74,.91,2.62l-23.86,8.51c-.29-.87-.59-1.74-.88-2.61Z"/>
      <path class="cls-1" d="M250.38,265.02c-7.1-4.55-13.12-10.45-19.68-16.52,3.64-.8,16.77,10.03,19.68,16.52Z"/>
      <path class="cls-1" d="M614.1,475.26c-4.32,2.38-22.65-4.38-24.53-8.79,8.75,3.13,16.64,5.96,24.53,8.79Z"/>
      <path class="cls-1" d="M189.25,486.08c8.42-3.6,16.06-7.28,24.37-9.2-3.04,4.36-20.6,11.09-24.37,9.2Z"/>
      <path class="cls-1" d="M194.88,498.73c1.36-4.58,18.64-13.09,23.54-11.16-7.55,3.58-15.1,7.16-23.54,11.16Z"/>
      <path class="cls-1" d="M212.05,272.97c7.04,4.66,14.08,9.31,21.41,14.16-3.43,1.8-20.22-8.59-21.41-14.16Z"/>
      <path class="cls-1" d="M173.29,410.05c8.44-.43,16.89-.85,25.33-1.28,.05,.89,.1,1.78,.14,2.67-8.44,.39-16.89,.78-25.33,1.18-.05-.86-.1-1.71-.14-2.57Z"/>
      <path class="cls-1" d="M217.79,314.08c-4.33,.42-21.64-8.17-23.21-12.61,8.53,4.04,16.15,7.66,23.78,11.28-.19,.44-.38,.89-.57,1.33Z"/>
      <path class="cls-1" d="M217.96,536.13c.32-3.35,13.48-14.01,19.66-16.34,.17,2.77-10.67,11.87-19.66,16.34Z"/>
      <path class="cls-1" d="M352.66,595.03c-2.6,9.3-3.59,17.67-7.49,25.16-1.35-5.36,3.54-22.69,7.49-25.16Z"/>
      <path class="cls-1" d="M272.53,556.35c-2.42,6.2-14.3,19.23-17.71,18.45,5.57-6.76,10.91-13.26,16.26-19.75,.48,.43,.96,.87,1.45,1.3Z"/>
      <path class="cls-1" d="M616.77,333.65c-.74,2.79-14.81,7.99-23.43,8.66,.72-2.79,14.63-7.93,23.43-8.66Z"/>
      <path class="cls-1" d="M182.56,333.03c8.91,2.33,17.04,4.47,24.62,8.27-5.33,1.18-22.56-4.62-24.62-8.27Z"/>
      <path class="cls-1" d="M209.74,333.59c-7.92-2.84-15.84-5.68-24.37-8.74,3.57-2.24,21.71,3.71,24.85,7.33-.16,.47-.32,.94-.48,1.41Z"/>
      <path class="cls-1" d="M568,552.69c-7.1-4.47-13.06-10.4-19.45-16.07,2.89-1.5,15.19,8.15,19.45,16.07Z"/>
      <path class="cls-1" d="M619.68,456.55c-8.14-2.04-16.27-4.09-25.46-6.4,4.25-2.34,22.49,1.94,25.8,5.04-.11,.45-.23,.91-.34,1.36Z"/>
      <path class="cls-1" d="M263.63,251.77c-5.64-6.21-11.28-12.43-17.24-18.98,3.75-.7,16.22,11.92,18.5,17.73-.42,.41-.84,.83-1.27,1.24Z"/>
      <path class="cls-1" d="M304.26,194.45c3.6,7.6,7.2,15.2,11.22,23.69-4.31-1.45-12.37-17.23-12.79-22.89,.52-.27,1.05-.53,1.57-.8Z"/>
      <path class="cls-1" d="M324.92,186.17c2.82,7.88,5.64,15.76,8.69,24.3-4.2-1.52-11.05-19.67-8.69-24.3Z"/>
      <path class="cls-1" d="M434.57,176.07c-1.15,8.25-2.31,16.49-3.53,25.22-1.18-.59-2.21-.92-2.19-1.13,.91-8.16,1.92-16.31,2.91-24.46,.94,.12,1.87,.24,2.81,.36Z"/>
      <path class="cls-1" d="M515.49,595.42c-4.31-7.19-8.63-14.38-13.19-21.98,4.14,.19,14.81,17.09,13.19,21.98Z"/>
      <path class="cls-1" d="M199.02,381.66c-8.32-.79-16.64-1.58-24.96-2.38,.05-.67,.11-1.34,.16-2.01,8.41-.94,16.61,1.21,24.92,1.78-.04,.87-.08,1.74-.12,2.61Z"/>
      <path class="cls-1" d="M572.45,295.38c7.12-4.5,14.3-8.88,21.61-13.02,.43,.75,.86,1.51,1.29,2.26-7.12,4.57-14.34,8.94-21.76,13-.38-.75-.76-1.49-1.14-2.24Z"/>
      <path class="cls-1" d="M274.12,588.89c1.14-6.32,11.43-20.43,15.64-21.14-5.46,7.69-9.45,15.21-15.64,21.14Z"/>
      <path class="cls-1" d="M599.9,379.1c9.25-.91,17.55-1.72,26.97-2.64-3.75,4.06-23.08,5.94-26.97,2.64Z"/>
      <path class="cls-1" d="M322.33,613.31c2.8-7.94,5.61-15.87,8.41-23.81,.89,.31,1.79,.63,2.68,.94-2.83,7.91-5.66,15.82-8.49,23.73l-2.6-.87Z"/>
      <path class="cls-1" d="M475.2,614.09c-2.83-7.78-5.66-15.56-8.65-23.79,1.26-.06,2.56-.32,2.64-.1,2.94,7.67,5.77,15.38,8.62,23.08l-2.61,.81Z"/>
      <path class="cls-1" d="M297.58,573.8c-4.33,7.22-8.65,14.43-13.52,22.56-1.22-4.9,8.74-21.73,13.52-22.56Z"/>
      <path class="cls-1" d="M459.82,592.67c2.46,7.92,4.92,15.84,7.53,24.22-1.27,0-2.57,.19-2.64-.03-2.56-7.76-5-15.56-7.45-23.35,.86-.28,1.71-.56,2.57-.84Z"/>
      <path class="cls-1" d="M626.13,423.62c-8.76-.73-17.22-.8-25.33-3.42,7-2.31,23.59,.01,25.33,3.42Z"/>
      <path class="cls-1" d="M552.14,570.05c-6.49-7.19-12.1-13.41-17.72-19.63,4.77-.11,17.93,14.5,17.72,19.63Z"/>
      <path class="cls-1" d="M247.83,569.03c-.11-3.5,11.18-16.75,16.43-19.84,.45,2.81-9.21,14.59-16.43,19.84Z"/>
      <path class="cls-1" d="M230.32,551.97c6.96-6.25,13.22-11.87,20.33-18.25-.48,5.48-15.64,18.95-20.33,18.25Z"/>
      <path class="cls-1" d="M376.51,625.71c.8-8.32,1.6-16.65,2.4-24.97,.87,.08,1.75,.15,2.62,.23-.78,8.33-1.57,16.66-2.35,24.99-.89-.09-1.78-.17-2.67-.26Z"/>
      <path class="cls-1" d="M617.78,467.62c-9.08-2.73-17.1-5.15-25.12-7.56,4.02-2.64,22.46,3.06,25.12,7.56Z"/>
      <path class="cls-1" d="M418.83,199.35c-.16-8.34,1.29-16.56,2.23-24.81,.78,.05,1.57,.11,2.35,.16-.68,8.25-1.36,16.5-2.04,24.74l-2.54-.1Z"/>
      <path class="cls-1" d="M199.48,418.54c-2.05,3.93-22.19,6.04-26.34,2.6,9.2-.91,17.52-1.73,26.34-2.6Z"/>
      <path class="cls-1" d="M552.17,231.76c-.94,5.25-14.03,18.88-18.19,18.63,6.18-6.78,11.46-13.4,18.19-18.63Z"/>
      <path class="cls-1" d="M418.36,600.38c3.84,2.57,5.95,20.9,2.65,25.6-.86-8.3-1.72-16.6-2.65-25.6Z"/>
      <path d="M397.39,322.58c11.64,.61,22.77,.93,33.86,1.83,12.11,.99,19.72,8.37,24.11,19.08,4.33,10.57,4.21,21.52,.4,32.21-3.39,9.5-9.89,15.92-19.98,18.56-12.52,3.28-25.22,3.56-38.39,3.41v-75.1Z"/>
      <path d="M315.66,97.88c5.73-1.06,10.71-2.33,15.77-2.84,5.1-.51,7.94,2.03,9.15,7.16,1.14,4.83-.52,8.89-5.12,10.57-4.78,1.74-9.83,2.76-15.24,4.23-1.51-6.32-2.92-12.24-4.56-19.12Z"/>
      <path d="M338.51,710.57c-10.09,.1-19.11-8.88-19.23-19.14-.12-10.37,8.94-19.38,19.48-19.38,10.04,0,18.67,8.58,18.96,18.83,.29,10.35-8.73,19.59-19.21,19.68Z"/>
      <path d="M248.17,125.05c5.09-2.36,9.6-4.81,14.37-6.57,4.66-1.72,8.5,.21,10.77,4.61,2.42,4.69,1.72,8.81-2.7,11.75-4.12,2.73-8.64,4.86-13.56,7.57-2.92-5.71-5.68-11.1-8.88-17.36Z"/>
    </g>
  </g>
</svg>